<svg width="288" height="240" viewBox="0 0 288 240" fill="none" xmlns="http://www.w3.org/2000/svg">
<path d="M124.574 143.107C121.738 139.32 121.493 134.525 121.723 129.6C121.838 126.993 122.141 124.387 122.645 121.824C120.643 120.917 118.901 119.52 117.576 117.763C113.89 112.795 114.595 105.235 118.354 100.368C122.371 95.155 129.917 94.291 135.907 99.115C137.923 100.973 139.651 103.133 141.019 105.509C142.589 107.784 142.301 108.417 145.454 109.281C147.37 109.627 149.098 110.678 150.293 112.219C151.186 113.558 151.661 115.113 151.69 116.712C151.819 119.707 150.538 122.227 150.408 124.589C154.368 128.304 151.862 135.518 146.88 136.857C146.261 139.838 146.203 142.905 146.736 145.915C146.765 146.102 146.952 146.232 147.139 146.189C147.226 146.174 147.298 146.131 147.341 146.073C147.73 145.569 148.291 144.965 148.709 144.518C151.286 141.638 154.397 139.305 157.896 137.649C166.493 133.819 176.386 136.137 180.965 144.648C183.442 149.256 183.902 154.397 184.104 158.861C184.205 161.006 184.262 163.166 184.262 165.297C188.914 157.291 190.67 153.835 193.118 154.238C196.2 147.686 196.272 141.739 206.525 135.101C206.381 129.11 205.128 123.177 202.824 117.648C201.182 118.368 199.483 118.929 197.741 119.333C187.114 122.141 176.242 124.718 165.269 123.984C163.656 123.883 163.397 123.307 163.411 122.112C163.498 115.387 163.325 103.925 161.827 97.387C160.718 92.4766 157.306 84.8734 155.016 80.395C143.813 78.307 128.707 78.9406 114.682 83.0158C114.322 85.2766 114.134 87.5662 114.12 89.8702C113.645 100.08 109.973 109.886 103.622 117.907C102.888 118.814 102.557 118.886 101.635 118.685C92.7648 116.64 84.0528 113.976 75.5424 110.736C79.0416 122.069 78.12 134.971 83.2032 145.8C84.7872 148.953 86.6016 151.992 88.6176 154.886C86.0976 156.326 83.4912 157.593 80.7984 158.673C81.6192 159.365 82.3968 160.113 83.1168 160.905C86.7312 164.678 90.072 168.725 93.0816 173.001C93.9312 166.766 96.5664 156.729 99.8064 150.71C103.118 144.59 108.072 141.221 115.258 141.221C118.339 141.163 121.378 141.955 124.042 143.525C124.387 143.669 124.776 143.381 124.574 143.107Z" fill="#BC8CE4"/>
<path d="M62.568 163.454C57.6864 165.945 52.6176 168.753 47.9952 171.734C46.944 172.325 45.936 173.001 45 173.75C42.2928 169.92 40.248 165.657 38.9664 161.15C38.4192 161.265 37.8576 161.352 37.296 161.409C37.3536 161.568 37.3824 161.741 37.4544 161.928C38.7504 166.421 40.7952 170.669 43.5024 174.485C43.6608 174.701 43.8912 174.83 44.1504 174.845C44.1648 175.061 44.352 175.205 44.568 175.19C44.5824 175.19 44.5968 175.19 44.6112 175.19C45.9792 174.758 47.2608 174.096 48.4128 173.246C52.5024 170.813 59.0688 167.025 63.2304 164.981C63 164.462 62.7696 163.973 62.568 163.454Z" fill="#163C69"/>
<path d="M30.0672 123.681C31.6368 129.11 32.7456 134.669 33.408 140.285C33.9552 140.27 34.5024 140.256 35.0496 140.256C33.9696 132.35 32.6304 124.128 29.16 116.957C28.3104 114.84 26.8128 113.04 24.8832 111.83C24.8688 111.83 24.8688 111.816 24.8544 111.816C31.608 108.993 40.536 103.925 58.968 97.747C62.4528 96.5806 62.4528 96.3646 63.576 97.5598C67.9536 102.297 71.2368 107.942 73.1952 114.077C77.472 127.339 75.1248 140.371 83.6496 154.353C81.7632 154.944 79.9056 155.621 78.0912 156.413C78.12 156.47 78.1488 156.513 78.1776 156.571C78.9408 156.47 79.6896 156.758 80.1936 157.334C82.9872 156.182 83.7936 156.096 84.456 155.419C85.0752 155.707 85.9536 155.03 85.5072 154.31C73.3968 135.129 82.4832 117 65.6496 97.4878C64.6128 96.2782 63.5472 94.9678 61.776 95.2414C59.5872 95.587 34.5312 104.587 24.2496 111.081C24.0192 111.254 23.9616 111.571 24.1344 111.816C24.1776 111.873 24.2208 111.917 24.2928 111.96C24.0768 112.133 24.048 112.435 24.2064 112.651C24.2208 112.68 24.2496 112.694 24.264 112.723C27.4032 115.502 28.8288 119.75 30.0672 123.681Z" fill="#163C69"/>
<path d="M104.587 179.625C104.659 179.625 104.659 179.539 104.587 179.539C104.515 179.51 104.515 179.625 104.587 179.625Z" fill="#163C69"/>
<path d="M102.125 74.8079C101.621 74.3903 101.002 74.1311 100.354 74.0447C99.3024 73.8143 96.0336 73.1519 94.2336 72.8351C91.5264 72.2447 88.776 71.8991 85.9968 71.8127C85.752 71.8271 85.5504 72.0287 85.5504 72.2735C85.5504 72.4607 85.68 72.6335 85.8672 72.6911C88.488 73.5119 91.1664 74.1455 93.888 74.5919C94.104 74.6351 99.6768 75.7295 99.8928 75.7583C100.541 75.9455 101.218 75.9599 101.88 75.7871C102.197 75.6575 102.355 75.2975 102.24 74.9807C102.211 74.9231 102.168 74.8655 102.125 74.8079Z" fill="#163C69"/>
<path d="M101.16 83.2031C100.152 82.4543 98.8992 82.8287 89.0928 80.9855C87.7824 80.6255 86.4144 80.4671 85.0608 80.5247C84.6576 80.5967 84.672 81.1583 84.96 81.3599C86.4864 82.3967 95.0976 83.7215 96.912 84.0095C98.1504 84.1823 99.8208 84.7007 101.03 84.2255C101.333 84.1247 101.491 83.7935 101.39 83.4911C101.333 83.3759 101.261 83.2751 101.16 83.2031Z" fill="#163C69"/>
<path d="M99.9504 92.8078C99.4464 92.419 98.856 92.1742 98.2368 92.0734C97.0848 91.771 88.6896 90.3598 87.2496 90.1438C85.7808 89.8126 84.2688 89.6542 82.7568 89.683C82.3248 89.7262 82.0512 90.3166 82.4976 90.5182C83.8512 91.0366 85.248 91.3966 86.6736 91.6126C87.9984 91.8862 96.5088 93.4558 97.632 93.5998C98.3376 93.7726 99.072 93.7582 99.7776 93.571C100.022 93.4846 100.152 93.211 100.066 92.9662C100.022 92.9086 99.9936 92.8654 99.9504 92.8078Z" fill="#163C69"/>
<path d="M65.1024 115.545C64.2672 115.401 63.4032 115.545 62.6544 115.934C49.7088 120.499 46.9728 121.075 44.9568 122.803C44.5968 123.12 44.9856 123.825 45.4464 123.638C49.4352 122.011 56.664 119.937 63.2304 117.533C63.9936 117.273 64.9584 117.043 65.3904 116.309C65.5344 116.049 65.448 115.733 65.1888 115.589C65.16 115.574 65.1312 115.56 65.1024 115.545Z" fill="#163C69"/>
<path d="M65.3616 124.848C63.8928 124.689 62.352 125.481 60.9696 125.913C51.84 128.779 49.896 128.246 49.0464 130.233C48.888 130.637 49.4064 130.91 49.6944 130.752C50.8032 130.277 51.984 129.945 53.1792 129.787C55.008 129.413 58.3344 128.577 61.8048 127.469C63.2304 127.209 64.5696 126.605 65.6928 125.697C65.88 125.496 65.88 125.193 65.6784 125.006C65.6064 124.905 65.4768 124.862 65.3616 124.848Z" fill="#163C69"/>
<path d="M237.197 79.171C236.808 78.7246 236.261 78.4366 235.67 78.3934C232.387 77.6014 229.205 76.4638 226.166 74.995C225.144 74.5342 223.92 73.6558 222.754 73.8862C222.451 73.9438 222.379 74.3902 222.595 74.6206C223.531 75.4126 224.597 76.0606 225.734 76.5358C228.715 78.0478 231.869 79.2142 235.109 80.0062C235.699 80.2654 236.39 80.2798 236.981 80.0206C237.269 79.819 237.37 79.459 237.197 79.171Z" fill="#163C69"/>
<path d="M232.43 85.3487C231.782 84.5135 230.371 84.4703 229.392 84.3263C222.869 83.2751 220.522 81.3455 219.326 81.5327C219.125 81.5615 218.981 81.7487 219.01 81.9503C219.01 82.0079 219.038 82.0511 219.067 82.0943C219.384 82.5407 219.816 82.8863 220.32 83.0879C222.955 84.4559 225.778 85.3919 228.715 85.8815C229.838 86.2127 231.019 86.3567 232.2 86.2847C232.502 86.1983 232.675 85.8959 232.589 85.5935C232.546 85.4927 232.502 85.4063 232.43 85.3487Z" fill="#163C69"/>
<path d="M228.902 89.8414C227.434 88.8766 226.008 89.7262 218.779 87.307C217.699 86.8318 216.59 86.4862 215.438 86.2414C215.064 86.1982 214.646 86.6878 215.006 87.019C216.965 88.7326 222.408 90.1726 225.173 90.6622C226.339 91.0222 227.592 91.0654 228.787 90.7774C229.061 90.691 229.219 90.3886 229.133 90.115C229.09 89.9998 229.003 89.899 228.902 89.8414Z" fill="#163C69"/>
<path d="M207.59 111.874C207.518 110.808 204.005 92.5632 203.702 91.0368C201.427 79.704 199.93 72.9072 194.198 64.3824C193.55 63.432 192.802 62.5824 192.125 61.6752C192.053 61.5744 191.923 61.5024 191.794 61.5168C191.736 61.5024 191.693 61.488 191.635 61.488C188.899 61.3872 186.163 61.5744 183.456 62.0352C175.982 62.9568 167.904 64.5984 161.107 67.968C158.746 69.0624 156.528 70.4448 154.526 72.1152C154.224 72.0144 153.907 72.1728 153.792 72.4608C153.734 72.6192 153.749 72.7776 153.835 72.9216C155.318 75.9024 156.83 78.8688 158.155 81.936C162.821 92.7648 165.168 104.458 165.053 116.237C164.909 118.123 164.938 120.024 165.139 121.896C165.24 122.458 166.003 122.357 166.176 121.91C166.68 122.054 167.184 122.17 167.702 122.242C172.656 122.63 177.624 122.314 182.477 121.306C189.533 119.779 196.416 117.576 203.026 114.71C204.538 114.163 206.006 113.486 207.403 112.694C207.648 112.507 207.734 112.162 207.59 111.874ZM168.206 120.917C167.602 120.888 166.997 120.974 166.421 121.003C166.666 119.664 166.781 118.31 166.752 116.942C167.011 105.091 164.765 93.312 160.128 82.4112C158.789 79.0992 157.133 75.9312 155.189 72.9216C157.133 71.856 159.034 70.7472 161.035 69.7824C174.37 63.4176 187.733 63.7776 191.693 62.7696C192.038 63.504 192.427 64.224 192.845 64.9152C196.07 69.552 198.374 74.7792 199.627 80.2944C202.522 91.1664 205.099 108.245 206.294 111.672C202.032 112.896 185.731 121.565 168.206 120.917Z" fill="#163C69"/>
<path d="M201.298 17.2655C201.254 17.0207 201.01 16.8623 200.765 16.9055C200.65 16.6751 200.434 16.5311 200.174 16.5167C199.123 16.4591 198.058 16.8047 195.048 17.6399C191.448 18.6191 189.605 19.1807 184.91 20.5775C183.499 20.8799 182.131 21.3695 180.835 22.0175C179.64 21.6431 180.029 23.3855 179.654 26.2367C179.597 26.6543 179.51 27.0863 179.438 27.5039C179.366 27.3311 179.208 27.2159 179.035 27.1727C175.133 26.0639 172.238 26.3663 167.458 21.8735C162.518 17.2511 160.056 13.2623 159.12 12.4415C159.019 12.0815 158.645 11.8799 158.299 11.9951C158.27 12.0095 158.242 12.0095 158.227 12.0239C157.579 12.2399 156.974 12.5567 156.427 12.9599C138.73 25.2431 130.349 27.3311 129.744 28.5407C129.413 28.5119 129.038 28.8287 129.154 29.1743C129.902 31.1471 130.853 33.0335 131.99 34.8191C140.285 48.8303 153 54.2735 168.379 52.2143C173.808 51.6383 179.021 49.8095 183.614 46.8863C191.376 41.6015 202.478 26.0639 201.298 17.2655ZM192.643 35.0927C190.901 37.5839 188.928 39.9167 186.768 42.0623C176.846 51.7103 159.653 53.2367 148.248 47.9375C139.824 44.0207 136.426 38.9519 131.702 31.1759C131.314 30.5423 130.925 29.9663 130.493 29.3759C136.109 27.7775 153.778 17.0927 158.472 13.5647C160.877 17.1071 163.627 20.3759 166.709 23.3567C170.006 26.4815 174.312 28.3247 178.862 28.5263C178.992 28.5407 179.122 28.4975 179.237 28.4255C176.544 38.4335 166.637 47.0447 159.077 47.8799C157.464 47.9087 155.866 48.0239 154.267 48.2399C154.022 48.2975 153.936 48.7151 154.181 48.8303C155.578 49.3199 157.075 49.5071 158.558 49.3919C163.123 49.3055 166.622 47.2175 170.28 44.3519C174.643 40.9247 178.027 36.4175 180.101 31.2767C181.267 28.6991 181.699 25.8479 181.382 23.0399C183.082 23.0111 184.061 22.4927 195.408 19.3391C197.035 18.9935 198.634 18.5471 200.203 17.9999C199.066 24.1919 196.474 30.0671 192.643 35.0927Z" fill="#163C69"/>
<path d="M98.8992 28.728C97.2864 27.5472 95.1696 27.3312 93.3408 28.1376C91.4976 28.8432 90.5184 30.8448 91.08 32.7456C91.152 33.0048 91.4256 33.1488 91.6704 33.0768C91.872 33.0192 92.016 32.832 92.016 32.6304C92.1456 31.0608 93.2976 29.7792 94.8528 29.4912C95.832 29.3184 96.84 29.52 97.6608 30.0528C99.0576 31.0752 98.3664 32.832 97.6032 34.2432C96.84 35.6832 96.2496 36.9504 97.3008 38.304C97.56 38.6208 98.0208 38.9376 98.2656 39.2976C99.0288 40.3488 100.123 39.8736 100.109 39.0672C100.08 38.52 99.7632 38.016 99.288 37.728C98.1648 36.792 98.4672 36.648 99.1872 35.1792C100.31 32.8752 101.03 30.4128 98.8992 28.728Z" fill="#A3A3A3"/>
<path d="M102.355 42.235C101.88 42.3502 101.448 42.6382 101.174 43.0558C101.074 43.3438 101.146 43.6462 101.347 43.8766C101.822 44.2942 102.47 44.4382 103.075 44.2654C103.968 43.7182 103.378 42.1774 102.355 42.235Z" fill="#A3A3A3"/>
<path d="M141.797 54.4607C140.875 54.2447 137.75 53.6687 136.454 55.5407C136.152 55.9727 136.757 56.4191 137.16 56.0879C137.808 55.7423 138.571 55.6415 139.291 55.7999C140.285 55.7999 141.264 56.0015 142.171 56.3903C143.885 57.3119 143.669 59.1983 142.373 60.6383C140.443 62.7551 139.565 62.5679 138.125 63.3167C136.656 64.1087 135.893 65.7791 136.253 67.4063C136.325 67.8383 136.728 68.1263 137.16 68.0543C137.174 68.0543 137.189 68.0543 137.203 68.0399C137.722 67.9391 138.082 67.4495 137.995 66.9311C137.851 66.0671 138.312 65.2031 139.133 64.8719C140.083 64.5119 140.99 64.0655 141.854 63.5327C144.043 61.8767 145.152 60.2495 145.238 58.4639C145.195 56.4623 143.755 54.7919 141.797 54.4607Z" fill="#A3A3A3"/>
<path d="M136.541 71.064C135.907 71.1792 135.49 71.7696 135.59 72.4032C135.59 72.4176 135.59 72.432 135.605 72.4464C135.763 73.008 136.339 73.3392 136.901 73.1952C137.952 72.936 138.269 70.92 136.541 71.064Z" fill="#A3A3A3"/>
<path d="M121.723 61.8766C120.96 60.9982 119.981 60.3214 118.886 59.9182C115.042 58.0606 95.4288 51.8974 86.4432 50.8174C85.6512 50.7166 84.8592 50.7454 84.096 50.731C84.0528 50.731 84.024 50.731 83.9952 50.7454C83.9088 50.5294 83.664 50.4286 83.4336 50.515C83.4048 50.5294 83.3616 50.5438 83.3328 50.5726C81.7632 51.5806 80.3808 52.891 79.3008 54.4174C76.1328 58.5934 74.5632 64.3246 73.872 69.523C72.6048 78.9694 73.4832 89.755 68.4144 98.2366C68.8176 98.6974 69.192 99.187 69.5808 99.691C78.0336 86.155 71.5968 69.667 79.992 56.2174C81.1296 54.5326 82.3968 52.9342 83.8224 51.4654C83.8656 51.5086 83.9232 51.5374 83.9808 51.5518C84.5712 51.7102 85.1472 51.9406 85.752 52.0846C85.8672 52.1134 107.827 56.851 117.403 61.1134C119.578 62.0782 119.923 62.4814 120.514 62.7262C117.864 64.8574 115.733 67.5646 114.278 70.6462C108.662 81.6766 112.795 91.7998 107.323 104.141C105.754 107.683 103.637 110.952 101.016 113.817C91.8864 111.312 82.7424 108.835 73.5984 106.416C73.9008 107.064 74.1888 107.741 74.4336 108.417C75.9456 108.821 98.6544 114.941 101.074 115.646C101.376 115.733 101.693 115.646 101.923 115.43C116.856 99.8062 109.728 85.9246 114.883 73.339C116.798 68.6734 119.376 66.1246 121.579 63.5326C121.781 63.2878 121.795 62.9566 121.608 62.6974C121.838 62.4814 121.896 62.1214 121.723 61.8766Z" fill="#163C69"/>
<path d="M254.592 64.1374C254.549 63.9646 254.434 63.835 254.275 63.7486C254.29 63.3742 254.045 63.0286 253.685 62.9134C252.605 62.5678 252.662 62.6542 245.678 61.1566C228.283 57.427 222.206 55.6126 221.256 56.0878C220.954 56.0446 220.68 56.2606 220.637 56.563C220.118 61.9054 219.326 65.8942 210.47 73.2814C207.749 75.5566 204.955 77.7886 202.392 80.251C202.507 80.9278 202.651 81.5758 202.781 82.2526C205.906 79.1278 208.354 77.2558 211.882 74.3038C216.979 70.0414 222.883 63.6766 221.774 57.0958C222.912 57.5422 224.078 57.9022 225.274 58.1614C231.106 59.6014 241.171 61.8766 245.246 62.7694C247.882 63.3454 250.56 64.0942 253.253 64.4254C253.123 65.1598 253.066 65.8942 253.08 66.643C252.677 76.291 248.429 87.1342 241.186 93.4558C238.421 95.587 236.074 98.1934 234.23 101.16C232.301 104.141 231.25 107.597 231.192 111.139C228.672 108.619 210.557 102.888 207.187 101.793C207.346 102.456 207.518 103.118 207.706 103.795C228.773 110.376 228.845 112.104 230.717 112.435C230.99 112.493 231.264 112.377 231.422 112.147C231.566 112.262 231.782 112.233 231.898 112.089C231.926 112.046 231.941 112.017 231.955 111.974C232.675 108.662 233.813 105.465 235.354 102.456C237.514 98.683 239.486 97.1278 242.352 94.6078C249.984 87.883 254.275 76.7086 254.779 67.1182C254.88 66.1246 254.822 65.1166 254.592 64.1374Z" fill="#163C69"/>
<path d="M128.448 126C128.117 125.899 127.757 126.072 127.627 126.403C127.512 126.475 127.426 126.576 127.339 126.691C126.936 127.195 127.022 127.915 127.526 128.318C127.728 128.477 127.973 128.563 128.232 128.563C129.326 128.52 129.744 126.518 128.448 126Z" fill="#163C69"/>
<path d="M134.798 126.893C134.467 127.152 134.266 127.555 134.266 127.973C134.294 128.578 134.798 129.053 135.403 129.053C136.051 129.024 136.368 128.376 136.411 127.8C136.483 127.238 136.166 126.706 135.634 126.504C135.302 126.389 134.942 126.562 134.798 126.893Z" fill="#163C69"/>
<path d="M131.386 130.824C131.674 129.297 132.322 127.814 132.466 126.273C132.494 125.899 132.005 125.87 131.818 126.101C130.853 127.397 130.19 130.536 129.96 132.12C129.845 132.869 129.672 133.819 130.709 133.949C131.688 134.021 132.653 133.689 133.402 133.041C133.574 132.854 133.574 132.566 133.387 132.393C133.301 132.307 133.186 132.264 133.056 132.264C132.394 132.365 131.731 132.509 131.069 132.681C131.069 132.552 131.371 130.939 131.386 130.824Z" fill="#163C69"/>
<path d="M128.966 138.672C129.384 137.981 130.104 137.52 130.91 137.433C131.414 137.347 131.933 137.592 132.178 138.038C132.365 138.413 132.336 138.801 132.638 139.118C132.811 139.291 133.099 139.291 133.286 139.118C133.315 139.089 133.33 139.061 133.358 139.032C133.618 138.384 133.474 137.649 133.027 137.131C132.552 136.569 131.832 136.267 131.098 136.296C129.989 136.296 128.318 137.131 128.448 138.441C128.462 138.672 128.779 138.888 128.966 138.672Z" fill="#163C69"/>
<path d="M146.563 150.019C146.102 150.221 145.656 150.494 145.267 150.811C142.531 152.395 139.507 153.418 136.382 153.835C134.352 153.95 132.322 153.605 130.435 152.842C130.104 152.683 129.773 152.482 129.485 152.251C130.536 150.005 131.04 147.557 130.968 145.08C131.717 145.21 132.48 145.224 133.229 145.109C135.389 144.749 137.405 143.755 139.003 142.258C139.19 141.998 139.363 141.725 139.522 141.437C139.81 141.005 139.248 140.414 138.816 140.731C137.304 142.042 135.504 143.006 133.574 143.539C131.674 143.986 129.686 143.496 128.218 142.214C124.718 139.176 124.733 133.963 124.819 129.715C124.877 126.878 125.136 124.027 125.352 121.205C125.352 120.974 125.165 120.802 124.934 120.802C124.762 120.802 124.603 120.917 124.56 121.09C123.523 125.87 122.918 132.768 123.955 137.405C124.56 140.63 126.691 143.366 129.686 144.72C129.499 145.93 129.427 147.168 129.154 148.349C128.909 149.371 128.621 150.365 128.275 151.358C128.016 151.272 127.742 151.416 127.656 151.675C127.642 151.718 127.627 151.776 127.627 151.819C127.858 154.354 132.782 155.376 135.72 155.419C139.277 155.117 142.718 154.022 145.814 152.237C146.405 151.848 147.053 151.445 147.211 150.71C147.312 150.422 147.182 150.106 146.894 150.005C146.765 150.005 146.664 150.005 146.563 150.019Z" fill="#163C69"/>
<path d="M213.509 139.565C216.374 138.686 221.89 134.885 232.33 134.683C233.251 134.784 234.173 134.698 235.051 134.453C235.31 134.294 235.397 133.963 235.238 133.704C235.195 133.632 235.123 133.56 235.051 133.517C234.187 133.171 233.251 133.056 232.33 133.186C227.462 133.258 222.653 134.251 218.174 136.138C216.346 136.786 214.661 137.765 213.206 139.046C213.077 139.176 213.091 139.378 213.221 139.493C213.278 139.565 213.394 139.594 213.509 139.565Z" fill="#163C69"/>
<path d="M238.622 137.419C237.83 137.16 236.981 137.102 236.16 137.261C231.797 137.635 227.462 138.369 223.214 139.478C221.486 139.824 219.83 140.414 218.275 141.249C218.102 141.365 218.045 141.609 218.16 141.782C218.232 141.883 218.347 141.955 218.462 141.955C220.594 141.84 222.566 140.933 228.485 139.867C236.146 138.47 237.47 139.032 238.608 138.341C238.925 138.153 238.997 137.577 238.622 137.419Z" fill="#163C69"/>
<path d="M236.218 143.755C235.224 143.208 234.072 143.021 232.963 143.222C229.896 143.294 224.669 143.654 221.818 144.849C221.616 144.907 221.501 145.123 221.558 145.325C221.602 145.483 221.746 145.584 221.904 145.598C225.216 145.67 226.354 145.008 232.704 144.849C233.784 144.821 235.224 145.065 236.131 144.389C236.318 144.273 236.39 144.029 236.29 143.841C236.275 143.813 236.246 143.784 236.218 143.755Z" fill="#163C69"/>
<path d="M233.107 149.4C229.234 148.046 223.07 149.242 218.736 150.077C214.301 150.926 210.427 151.718 207.475 155.275C206.798 156.082 206.222 156.974 205.762 157.91C205.43 158.515 205.171 159.178 204.998 159.854C201.816 158.458 198.562 157.234 195.25 156.226C197.208 154.426 198.36 148.68 200.549 145.181C203.861 139.838 209.549 136.656 215.194 133.834C215.813 133.632 216.346 133.243 216.734 132.725C216.878 132.466 216.778 132.12 216.518 131.976C216.446 131.933 216.36 131.918 216.274 131.904C215.726 131.904 215.208 132.062 214.747 132.365C213.206 133.157 212.645 133.33 209.981 134.842C198.893 141.106 198.043 146.923 195.854 152.525C195.264 153.677 194.774 154.858 194.386 156.082C194.083 156.053 193.781 156.038 193.478 156.067C193.306 155.736 192.888 155.621 192.557 155.779C191.059 156.686 185.674 166.291 184.824 167.818C183.96 169.373 183.125 170.957 182.333 172.541C182.678 167.904 182.722 163.267 182.448 158.63C182.232 154.022 181.742 149.299 179.539 145.181C175.32 137.347 166.32 135.605 158.774 138.989C154.973 140.832 151.618 143.496 148.968 146.794C148.608 147.269 148.291 147.773 148.032 148.32C147.96 148.464 148.003 148.637 148.147 148.723C148.262 148.781 148.406 148.766 148.493 148.68C148.838 148.363 149.27 148.075 149.602 147.73C150.624 146.592 151.704 145.498 152.856 144.49C154.382 143.122 156.067 141.926 157.853 140.918C164.808 137.088 173.65 138.125 177.797 145.152C180.029 148.925 180.605 153.389 180.864 157.709C181.368 166.421 180.778 169.834 181.037 173.837C181.066 174.096 181.253 174.312 181.498 174.37C179.914 177.667 178.704 181.138 177.854 184.694C177.494 185.976 177.35 187.301 177.394 188.626C177.408 188.827 177.566 188.971 177.768 188.957C177.912 188.957 178.042 188.856 178.085 188.712C178.906 186.739 179.266 182.822 182.578 175.594C185.674 169.128 189.274 162.922 193.32 157.003C194.789 157.838 194.99 157.435 200.16 159.552C205.07 161.568 205.891 161.957 206.366 162.043C205.171 173.275 203.371 184.45 201.01 195.494C199.354 203.054 197.683 211.306 191.621 216.432C189.893 218.117 187.517 218.995 185.112 218.822C180 218.146 175.954 212.486 174.312 207.389C174.24 207.086 173.981 206.885 173.678 206.856C173.779 205.92 173.88 204.984 173.966 204.048C174.672 195.509 174.542 178.387 172.829 174.24C172.757 174.024 172.526 173.894 172.31 173.966C172.138 174.024 172.022 174.168 172.008 174.355C171.763 176.501 172.973 182.117 172.886 193.349C172.8 202.349 171.792 211.334 169.877 220.133C169.675 221.04 169.632 221.918 169.517 222.84C169.43 223.517 170.424 223.546 170.611 222.998C170.928 222.25 171.187 221.472 171.389 220.68C172.195 216.994 172.872 213.206 173.347 209.462C175.046 213.754 178.07 217.901 182.333 219.744C184.608 220.781 187.214 220.781 189.504 219.773C196.632 216.605 199.829 207.504 201.614 199.944C203.011 194.011 204.206 188.021 205.186 182.016C205.963 177.293 207.59 166.608 207.634 161.654C207.634 161.381 207.446 161.15 207.173 161.093C206.957 160.834 206.683 160.646 206.381 160.546C206.813 159.192 207.49 157.91 208.339 156.773C211.075 153.331 214.358 152.654 218.563 151.848C227.808 150.062 226.67 150.682 233.021 150.293C233.266 150.235 233.424 150.005 233.366 149.746C233.366 149.587 233.251 149.458 233.107 149.4Z" fill="#163C69"/>
<path d="M109.67 143.683C106.07 145.094 103.133 147.816 101.462 151.301C97.1136 159.307 94.2192 174.182 94.5216 177.883C90.9072 172.281 86.7888 167.025 82.224 162.187C81.3024 161.093 80.2368 160.113 79.0704 159.278C79.0272 158.99 78.768 158.774 78.4656 158.803C78.0192 158.861 77.6016 158.976 77.1984 159.163C76.1616 156.787 74.8512 154.526 73.3104 152.438C65.3184 140.558 62.6832 141.379 49.4352 138.139C48.6432 137.894 47.8368 137.765 47.0016 137.765C46.6704 137.765 46.3968 138.038 46.3968 138.384C46.3968 138.6 46.512 138.801 46.6992 138.902C47.9664 139.507 49.32 139.91 50.7168 140.112C57.0672 141.696 59.6304 141.998 62.2944 143.294C68.6304 146.39 72.0144 153.821 76.4064 159.581C73.0656 161.539 70.056 164.001 67.4496 166.867C66.4992 164.534 65.4336 162.23 64.4112 159.912C63.4896 157.853 62.6256 155.664 60.1488 155.217C59.0544 155.073 57.9312 155.088 56.8368 155.275C53.568 155.721 38.232 158.083 35.8848 159.336C35.6688 159.48 35.5968 159.768 35.7408 159.984C35.8272 160.113 35.9568 160.185 36.1152 160.2C37.3824 160.171 38.6352 159.998 39.8736 159.681C42.6816 159.163 55.6128 156.787 58.464 156.657C59.4432 156.528 60.4224 156.773 61.2288 157.349C61.9344 158.112 62.4672 159.005 62.8128 159.984C63 160.387 66.2544 167.702 66.5856 168.033C66.528 168.12 66.4848 168.192 66.4272 168.278C66.4128 168.293 66.4128 168.307 66.3984 168.336C66.1248 168.321 65.88 168.537 65.8656 168.811C65.8656 168.84 65.8656 168.883 65.8656 168.912C66.2688 170.294 66.7008 171.633 67.0176 173.045C68.5008 179.798 70.1712 191.549 75.7584 202.608C80.3376 211.737 89.208 222.926 99.1296 220.305C104.443 218.894 108.014 214.416 110.664 209.808C111.514 213.35 112.536 217.051 113.53 220.449C113.818 221.918 114.394 223.329 115.214 224.582C115.531 224.957 116.064 224.611 116.093 224.208C116.05 222.883 115.776 221.573 115.258 220.349C109.483 201.182 108.648 189.029 107.064 183.902C107.006 183.729 106.834 183.629 106.661 183.686C106.517 183.729 106.43 183.859 106.43 183.989C106.157 189.36 108.907 202.435 110.131 207.677C107.64 211.997 104.746 216.619 99.864 218.462C90.4896 222.048 81.8784 211.205 77.3136 202.334C71.496 191.016 69.7968 178.387 68.3568 172.555C68.0832 171.245 67.5936 169.992 66.9024 168.84C66.9168 168.825 66.9312 168.825 66.96 168.811C68.9616 167.558 72.9936 162.993 77.3568 160.761C77.7456 160.56 78.1344 160.387 78.5088 160.171C79.2 161.093 79.9488 161.957 80.7552 162.777C94.6224 177.955 98.9712 189.403 101.995 194.4C102.298 194.889 103.147 194.573 102.946 193.997C101.621 189.633 97.3584 182.102 95.1264 178.733C95.328 178.704 95.5008 178.574 95.5872 178.401C96.3216 176.443 96.8544 165.168 101.851 154.008C105.149 146.635 110.347 142.949 118.584 144.489C122.674 145.238 124.488 147.211 126.864 150.221C127.123 150.537 127.685 150.192 127.555 149.817C125.338 143.856 116.899 141.177 109.67 143.683Z" fill="#163C69"/>
<path d="M52.7904 144.331C51.0768 143.625 49.248 143.237 47.3904 143.179C42.2496 142.603 37.0656 142.459 31.896 142.733C31.4496 142.79 31.032 142.934 30.6576 143.179C30.2544 143.337 30.4128 143.899 30.7584 144.029C31.1904 144.216 31.6656 144.317 32.1408 144.317C37.1808 144.101 42.2352 144.259 47.2608 144.763C49.0464 145.08 50.8752 145.181 52.6896 145.051C52.8912 144.993 53.0208 144.777 52.9632 144.576C52.9488 144.461 52.8768 144.374 52.7904 144.331Z" fill="#163C69"/>
<path d="M45.288 148.219C41.2416 147.384 34.056 148.262 29.9808 148.838C29.2176 148.853 28.4832 149.069 27.8208 149.457C27.5472 149.63 27.4608 149.976 27.6336 150.249C27.7056 150.365 27.8208 150.465 27.9648 150.494C29.1744 150.825 29.6928 150.235 36.6192 149.659C39.4992 149.414 42.4368 149.457 45.288 148.982C45.504 148.925 45.6192 148.694 45.5616 148.478C45.5184 148.363 45.4176 148.262 45.288 148.219Z" fill="#163C69"/>
<path d="M46.08 152.496C44.8416 152.15 43.5312 152.15 42.2784 152.467C38.9088 152.798 35.568 153.374 32.2704 154.166C31.6368 154.267 31.0464 154.526 30.5568 154.944C30.4416 155.073 30.4416 155.289 30.5856 155.405C30.6144 155.433 30.6576 155.462 30.7008 155.477C31.2624 155.635 31.8384 155.635 32.4 155.491C32.9328 155.419 38.4048 154.469 42.2784 154.051C44.5248 153.806 45.36 153.893 46.08 153.417C46.3392 153.259 46.4112 152.928 46.2672 152.683C46.224 152.611 46.152 152.553 46.08 152.496Z" fill="#163C69"/>
<path d="M150.221 127.008C149.904 126.273 149.357 125.654 148.666 125.251C148.738 124.776 149.947 117.043 149.918 116.539C150.062 113.933 148.32 111.585 145.771 110.981C143.064 110.16 142.013 110.261 139.795 106.632C138.528 104.241 136.858 102.081 134.842 100.281C132.624 98.4095 129.787 97.4159 126.878 97.5023C118.051 97.9919 114.278 110.001 119.03 116.496C121.968 120.499 127.166 121.694 132.091 121.363C133.949 121.277 135.778 120.989 137.578 120.513C137.894 124.056 139.435 127.368 141.912 129.917C142.243 130.233 142.762 130.219 143.064 129.888C143.15 129.801 143.208 129.686 143.251 129.571C143.827 127.123 145.037 125.942 147.643 126.029C150.293 127.469 149.112 132.681 145.886 133.416C144.144 133.819 143.654 132.883 142.733 132.825C142.387 132.825 142.114 133.099 142.099 133.445C142.099 133.502 142.099 133.56 142.114 133.603C142.358 134.481 143.554 134.885 144.446 134.985C143.741 137.189 143.381 139.478 143.352 141.782C143.309 144.403 143.669 147.024 144.432 149.529C144.547 149.889 144.936 150.091 145.296 149.976C145.642 149.861 145.843 149.515 145.757 149.155C144.475 144.547 144.346 139.694 145.368 135.029C149.501 134.813 151.56 129.845 150.221 127.008ZM122.414 116.093C120.902 116.597 119.275 113.342 118.944 111.557C118.584 109.613 118.627 106.099 120.01 104.745C120.139 104.616 120.355 104.63 120.47 104.76C120.514 104.803 120.542 104.846 120.557 104.904C120.802 106.574 119.909 108.115 120.499 111.053C121.19 114.494 122.76 114.177 122.875 115.502C122.861 115.761 122.688 116.006 122.414 116.093Z" fill="#163C69"/>
</svg>
