<svg width="288" height="240" viewBox="0 0 288 240" fill="none" xmlns="http://www.w3.org/2000/svg">
<path d="M231.451 199.181C226.022 189.331 214.416 184.493 204.134 181.555C196.603 179.424 188.928 177.855 181.166 176.861C162.547 174.485 143.266 174.946 136.08 176.083C134.539 176.328 130.795 176.861 130.795 176.861C130.795 176.861 138.73 179.698 142.243 182.146C143.266 182.823 145.944 185.299 145.944 185.299L146.03 181.469C146.03 181.469 147.456 184.983 148.133 186.783C153.446 182.059 159.365 179.597 165.917 177.898C171.691 176.386 184.464 176.847 185.026 177.682C185.213 177.955 187.675 183.456 187.646 183.456C189.274 183.298 190.901 183.283 192.528 183.427C193.09 183.73 194.659 188.525 194.875 188.453C196.819 187.992 198.835 187.819 200.837 187.935C201.398 188.179 210.902 205.215 212.53 208.671C213.394 210.499 217.008 220.147 217.008 220.147C217.008 220.147 204.264 218.823 200.621 218.29C197.222 217.829 177.322 217.296 166.205 219.859C163.613 220.45 151.733 223.373 151.517 223.834C150.84 225.101 149.083 227.045 147.686 227.074C143.28 227.16 142.776 223.776 142.834 223.805C140.832 223.071 138.787 222.466 136.728 221.947C134.194 221.386 122.256 216.49 97.1856 218.117C93.816 218.333 76.968 219.975 76.6512 220.651C78.7536 215.957 80.856 211.263 82.9728 206.568C84.9168 202.277 92.7216 187.834 92.5056 187.776C94.4352 187.949 96.3792 188.007 98.3088 187.963C98.3088 187.963 100.282 184.666 100.901 183.859C101.707 182.837 106.675 183.082 106.517 183.557C106.92 182.419 107.323 181.239 107.726 180.101C78.9696 185.011 56.2752 200.779 61.6752 211.738C67.2912 223.128 80.6256 228.499 117.994 233.842C150.466 238.349 183.542 234.792 214.315 223.503C223.114 220.335 237.528 210.24 231.451 199.181Z" fill="#53A5A8"/>
<path d="M151.517 29.9378C151.301 28.8002 149.702 28.181 149.083 29.3186C148.953 29.5634 149.573 29.693 149.889 30.0242C150.609 30.845 148.838 31.565 147.701 31.565C146.649 31.5362 145.325 30.8306 146.102 29.621C146.261 29.405 145.973 29.1602 145.757 29.2754C144.965 29.837 144.777 30.9314 145.339 31.7234C145.382 31.781 145.425 31.8386 145.483 31.8962C147.225 33.9122 152.078 32.5298 151.517 29.9378Z" fill="#163C69"/>
<path d="M183.456 57.0098C180.389 57.8306 177.811 59.6018 170.87 61.4882C151.977 66.6434 131.918 65.6066 113.645 58.5218C113.299 58.3922 113.083 58.9538 113.4 59.1122C133.329 68.357 157.896 68.2994 177.278 61.1138C179.654 60.3938 181.901 59.2994 183.945 57.8738C184.377 57.5282 183.917 56.8802 183.456 57.0098Z" fill="#163C69"/>
<path d="M116.481 175.147C114.523 175.277 112.579 175.695 110.736 176.386C108.979 177.12 107.611 178.56 106.934 180.331C104.501 185.616 97.3006 201.528 96.2206 204.192C95.7886 205.215 95.4142 206.266 95.0542 207.346C94.867 207.936 94.651 209.448 94.1326 209.851C93.643 210.197 93.9166 211.147 94.5646 210.903C103.579 207.346 113.457 206.597 122.889 208.771C131.213 210.672 139.017 214.359 145.757 219.6C146.433 220.162 147.427 219.226 146.75 218.607C140.328 212.861 131.385 209.218 123.048 207.346C113.933 205.287 104.429 205.92 95.6734 209.203C96.6958 205.719 95.947 207.13 105.235 187.143C108.72 179.683 108.461 177.912 114.192 176.861C124.373 174.989 134.885 177.307 143.323 183.312C143.669 183.528 144.057 183.01 143.755 182.751C136.08 176.631 126.23 173.895 116.481 175.147Z" fill="#163C69"/>
<path d="M168.854 206.496C164.837 207.418 160.963 208.915 157.349 210.902C154.051 212.688 150.307 214.848 148.176 218.059C147.802 218.621 148.608 219.139 149.069 218.736C155.002 213.638 161.813 209.563 169.56 207.965C178.949 206.021 188.942 207.187 198.043 209.966C198.475 210.082 198.922 209.822 199.037 209.39C199.066 209.261 199.066 209.117 199.037 208.973C196.531 200.304 193.176 191.909 189.014 183.917C190.022 184.205 191.059 184.363 192.096 184.378C194.53 189.778 205.92 214.502 206.136 214.992C201.442 214.186 196.819 213.077 192.053 212.616C176.472 211.046 160.891 213.019 147.125 220.738C146.966 220.838 146.923 221.026 147.024 221.184C147.125 221.342 147.312 221.386 147.47 221.285C156.298 216.648 166.032 213.998 175.982 213.509C191.03 212.63 199.238 215.582 207.158 216.806C207.605 216.907 208.037 216.634 208.152 216.202C208.181 216.072 208.181 215.942 208.152 215.827C207.778 214.07 203.486 205.733 202.32 203.242C200.002 198.331 193.896 185.126 193.09 183.427C192.974 183.226 192.758 183.11 192.528 183.125C191.462 183.254 190.397 183.211 189.346 183.038C189.058 182.966 188.77 182.909 188.482 182.88C185.141 176.688 185.616 176.688 183.024 176.53C169.762 175.478 159.509 176.659 149.443 185.299C149.198 185.515 149.53 185.947 149.789 185.731C156.888 180.634 165.37 177.782 174.11 177.552C176.242 177.523 183.24 177.826 184.075 178.387C184.853 178.906 190.181 189.648 192.01 193.91C193.997 198.518 195.71 203.242 197.136 208.051C187.992 205.459 178.128 204.509 168.854 206.496Z" fill="#163C69"/>
<path d="M142.502 185.861C142.186 186.048 142.07 186.466 142.258 186.797C142.315 186.898 142.402 186.984 142.502 187.042C143.222 187.531 143.813 188.179 144.23 188.957C143.554 188.899 142.877 188.971 142.229 189.173C141.869 189.288 141.667 189.677 141.782 190.037C141.826 190.195 141.941 190.325 142.07 190.411C143.136 191.131 143.899 192.226 144.23 193.464C143.208 193.277 143.366 193.925 143.611 194.112C142.546 193.838 141.408 193.838 140.342 194.112C139.997 194.213 139.81 194.587 139.91 194.933C139.939 195.034 139.997 195.12 140.069 195.192C141.696 196.747 142.906 198.706 143.554 200.866C143.122 200.866 142.69 200.894 142.258 200.894C141.912 200.894 141.624 201.182 141.638 201.528C141.638 201.701 141.71 201.859 141.826 201.974C142.387 202.565 142.862 203.227 143.251 203.947C142.286 203.702 141.278 203.63 140.285 203.76C139.824 203.818 139.392 204.437 139.853 204.811C140.89 205.618 141.739 206.64 142.358 207.806C141.869 207.72 141.365 207.648 140.904 207.562C140.587 207.49 140.27 207.677 140.198 207.994C140.155 208.138 140.184 208.296 140.256 208.426C141.797 210.989 143.309 213.638 145.037 216.115C145.166 216.302 145.411 216.346 145.584 216.216C145.742 216.101 145.8 215.885 145.714 215.712C144.576 213.394 143.208 211.147 141.912 208.93C142.344 209.016 142.805 209.088 143.237 209.174C143.64 209.232 144.158 208.901 143.971 208.44C143.482 207.158 142.747 205.992 141.811 204.984C142.589 205.042 143.352 205.243 144.072 205.574C144.533 205.79 145.181 205.416 144.994 204.869C144.706 203.89 144.23 202.968 143.611 202.147C143.885 202.147 144.173 202.118 144.446 202.118C144.806 202.104 145.094 201.802 145.08 201.442C145.08 201.398 145.08 201.355 145.066 201.312C144.518 199.051 143.424 196.949 141.883 195.206C142.646 195.163 143.41 195.322 144.101 195.638C144.504 195.826 145.483 195.797 145.051 194.803C145.728 194.774 145.829 194.371 145.757 193.968C145.555 192.6 144.95 191.333 144 190.325C144.418 190.354 144.835 190.44 145.238 190.57C145.598 190.67 145.973 190.44 146.074 190.08C146.102 189.965 146.102 189.85 146.074 189.734C145.728 188.611 145.123 187.574 144.288 186.739C144.85 186.667 145.426 186.797 145.93 187.085C146.362 187.301 146.981 186.926 146.794 186.408C146.563 185.717 146.419 184.982 146.39 184.248C146.779 185.429 147.355 186.538 148.09 187.546C147.614 191.621 147.283 195.696 146.952 199.8C146.419 204.206 146.102 208.627 146.03 213.077C146.03 213.48 146.707 213.595 146.765 213.163C147.413 208.843 147.816 204.48 148.003 200.102C148.349 195.595 148.738 191.059 148.925 186.552C147.787 184.968 147.053 183.125 146.794 181.181C146.707 180.562 145.843 180.691 145.685 181.181C145.181 182.592 145.051 184.118 145.339 185.587C144.403 185.285 143.366 185.386 142.502 185.861Z" fill="#163C69"/>
<path d="M104.141 182.52C102.629 182.52 100.742 182.736 99.9214 184.118C97.7614 187.69 88.387 204.682 85.075 214.517C84.9742 214.906 85.219 215.309 85.6078 215.41C85.723 215.438 85.8526 215.438 85.9678 215.41C105.696 210.125 126.677 212.141 145.037 221.083C145.598 221.357 146.088 220.522 145.526 220.248C127.44 210.859 106.502 208.512 86.7886 213.696C88.819 206.942 92.5054 200.563 95.7742 194.386C97.1998 191.736 100.929 184.853 101.203 184.507C102.11 184.061 103.089 183.802 104.097 183.773C104.443 183.787 104.731 183.499 104.745 183.154C104.76 182.808 104.486 182.534 104.141 182.52Z" fill="#163C69"/>
<path d="M201.672 187.647C201.485 187.416 201.197 187.287 200.894 187.301C200.03 187.272 199.166 187.301 198.302 187.359C197.381 187.387 196.459 187.488 195.552 187.661C195.25 187.747 195.206 188.28 195.552 188.338C196.531 188.467 197.51 188.539 198.49 188.554C199.325 188.583 200.347 188.424 200.952 188.496C205.43 197.107 209.765 203.559 216.23 219.73C198.648 216.807 175.435 216.058 158.573 220.867C155.981 221.429 153.461 222.336 151.099 223.546C150.221 225.677 147.902 226.843 145.67 226.296C144.648 225.951 143.856 225.115 143.568 224.079C143.352 223.431 138.067 221.789 135.605 221.112C118.109 216.043 95.2703 216.749 77.5295 219.759C84.2111 203.141 88.2576 197.266 92.8368 188.367C94.3632 188.496 95.904 188.496 97.4304 188.367C97.6176 188.309 97.7328 188.122 97.6752 187.935C97.6464 187.819 97.5456 187.719 97.4304 187.69C95.9184 187.416 94.3919 187.243 92.8655 187.171C92.6207 187.171 92.3904 187.2 92.0303 187.661C88.2719 192.442 85.7663 198.187 83.0735 203.616C80.4239 208.959 77.9471 214.416 75.7295 219.975C75.4559 220.68 75.7871 220.968 76.8095 220.81C77.8319 220.651 99.4319 218.347 110.88 218.679C129.686 219.211 139.176 223.747 142.243 224.482C142.747 226.066 143.986 227.29 145.57 227.779C148.19 228.399 150.84 226.93 151.704 224.381C156.456 222.48 161.381 221.083 166.421 220.219C183.37 217.224 198.994 219.111 216.821 220.81C217.469 220.867 218.174 220.68 217.901 219.975C214.315 210.658 206.986 195.336 201.672 187.647Z" fill="#163C69"/>
<path d="M221.054 68.4866C220.838 67.0898 220.233 65.7794 219.297 64.7138C216.317 61.157 206.294 56.3906 198.245 57.125C196.502 51.4802 191.03 47.837 185.155 48.4274C178.79 36.3602 164.39 25.9634 148.377 25.805C148.349 24.7538 148.161 16.2722 148.161 16.2722L146.678 16.6754C146.678 16.6754 147.053 24.8258 147.11 25.7762C132.134 26.309 118.512 34.589 111.125 47.621C105.48 47.3762 99.1151 51.2354 97.1423 56.5346C89.8991 57.4274 82.0079 59.789 77.0543 65.1458C75.6719 66.485 74.6639 68.1554 74.1167 69.9842C71.8991 75.3554 75.5423 83.477 75.5423 83.477C75.5423 83.477 86.5583 94.1474 116.683 98.165C117.518 100.915 120.571 102.643 123.48 103.219C133.877 105.365 155.433 104.688 167.889 103.407C172.785 102.917 177.393 101.952 179.899 97.6898C205.545 93.8306 218.477 85.4642 220.982 77.1986C221.414 74.333 221.443 71.381 221.054 68.4866ZM81.1151 83.981C80.8847 84.3698 80.3951 84.485 80.0063 84.269C79.9487 84.2402 79.8911 84.197 79.8479 84.1394C79.0415 83.4626 79.0415 82.1954 78.9551 81.2018C78.8543 80.0498 78.9695 78.8834 79.3007 77.7746C79.3871 77.4578 79.7183 77.285 80.0351 77.3714C80.2223 77.429 80.3807 77.5874 80.4383 77.7746C80.6831 78.8834 80.9135 79.9922 81.0575 81.1442C81.3599 82.0514 81.3743 83.045 81.1151 83.981ZM85.7519 85.7666C85.6367 86.4146 84.8015 86.4722 84.3983 86.141C83.5631 85.4354 83.4767 84.0674 83.3183 83.0306C83.1311 81.965 83.1023 80.885 83.2607 79.8194C83.3471 79.2578 84.1247 79.3874 84.2831 79.8194C84.6575 80.8418 84.8447 81.9218 85.1759 82.973C85.5647 83.837 85.7663 84.8018 85.7519 85.7666ZM177.249 99.0722C175.061 101.189 171.792 101.751 168.854 102.125C156.427 103.551 143.899 103.824 131.414 102.96C126.619 102.615 120.038 102.643 117.806 98.4242C132.926 100.354 158.889 100.728 178.2 98.021C177.912 98.381 177.595 98.741 177.249 99.0722ZM121.291 91.8722C121.421 91.037 122.745 91.253 122.745 92.0594C122.745 94.2482 123.581 95.0546 123.019 95.9762C122.803 96.3362 122.342 96.4514 121.968 96.2498C120.816 95.6306 121.104 93.1106 121.291 91.8722ZM208.541 86.357C208.469 86.6162 208.181 86.7746 207.921 86.7026C207.763 86.6594 207.633 86.5298 207.576 86.357C207.389 84.9746 207.36 83.5778 207.489 82.1954C207.489 81.9362 207.705 81.7202 207.965 81.7202C208.224 81.7202 208.44 81.9362 208.44 82.1954C208.641 83.5634 208.685 84.9602 208.541 86.357ZM212.673 85.1186C212.544 85.5218 212.112 85.7378 211.723 85.6082C211.565 85.5506 211.421 85.4498 211.32 85.3058C210.398 83.9954 211.018 80.3522 211.262 78.8546C211.378 78.4658 211.781 78.2498 212.169 78.365C212.472 78.4514 212.673 78.725 212.688 79.0418C212.385 82.5554 213.192 83.8802 212.673 85.1186ZM217.901 72.2162C208.843 82.9298 193.709 85.277 180.273 87.6098C166.752 89.9858 105.177 93.6578 79.7471 76.1042C73.7279 71.9426 75.9167 68.6018 76.4207 67.9826C79.7183 63.7778 81.6047 62.6978 83.4911 61.6898C87.6959 59.4002 92.2895 58.7234 96.8255 57.5282C96.2783 59.5298 96.4079 61.661 97.1999 63.5762C97.5023 64.3538 98.7119 64.037 98.4383 63.2306C97.7759 61.2722 97.7471 59.1554 98.3807 57.1826C100.166 64.0658 120.24 69.2066 127.209 70.4306C149.789 74.2034 170.093 71.5106 187.819 64.0082C188.251 63.821 187.949 63.0866 187.473 63.2306C178.473 66.3698 169.171 68.6018 159.725 69.8978C146.059 71.4386 132.221 70.4882 118.901 67.061C111.513 65.045 96.0767 60.1922 100.195 53.7266C103.003 49.997 107.049 49.4066 110.621 48.5714C109.469 50.8178 108.561 53.1938 107.942 55.6418C107.856 55.9874 108.345 56.1026 108.461 55.8002C115.157 37.9442 131.256 27.4034 147.197 27.4034C147.254 28.4114 147.384 29.405 147.571 30.3986C147.629 30.8018 148.161 30.6434 148.219 30.3122C148.334 29.3618 148.377 28.397 148.377 27.4466C161.352 27.893 173.376 34.3442 180.936 44.9138C182.995 47.9954 184.737 51.2642 186.12 54.6914C186.465 55.469 187.632 54.9074 187.445 54.1298C186.969 52.4162 186.321 50.7458 185.529 49.1618C189.115 49.2338 192.499 50.8322 194.817 53.5682C197.193 56.5058 197.597 60.1058 197.251 63.749C192.672 66.3122 187.934 68.5874 183.081 70.5746C171.129 74.9378 160.358 75.6002 147.369 75.917C133.776 76.2626 121.363 75.4418 108.518 70.6322C108.245 70.517 108.029 71.0066 108.302 71.1218C119.693 76.2194 132.494 77.1698 144.849 77.0978C162.216 77.0546 175.637 76.0322 190.584 68.8898C193.118 67.6514 197.87 64.901 198.144 64.109C198.849 62.1362 198.936 59.9906 198.389 57.9746C202.853 58.2482 207.216 59.285 211.32 61.0562C213.293 61.9346 215.136 63.0722 216.806 64.4546C217.598 65.1458 218.289 65.9378 218.837 66.8306C220.363 69.0626 218.606 71.381 217.901 72.2162Z" fill="#163C69"/>
<path d="M176.544 55.1233C177.595 55.6417 178.863 55.1953 179.381 54.1441C179.424 54.0721 179.453 54.0001 179.482 53.9137C179.597 52.6753 179.395 51.4081 178.863 50.2705C178.301 49.0033 176.875 48.3697 175.565 48.7873C172.57 49.9105 174.514 54.3169 176.544 55.1233Z" fill="#BC8CE4"/>
<path d="M164.318 55.2818C164.765 56.2898 165.614 57.0818 166.666 57.4418C168.178 57.7442 168.638 55.7714 168.48 54.6914C168.365 53.4386 167.861 52.2434 167.054 51.2642C166.622 50.8466 166.018 50.645 165.413 50.7458C164.491 50.933 163.829 51.725 163.814 52.661C163.814 53.5538 163.987 54.4466 164.318 55.2818Z" fill="#53A5A8"/>
<path d="M152.87 58.8817C153.648 59.1697 154.526 58.9393 155.059 58.2913C155.405 57.7441 155.592 57.1105 155.578 56.4769C155.635 55.6129 155.232 51.4513 153.288 52.3729C150.552 53.7265 152.035 58.5217 152.87 58.8817Z" fill="#FF6C7E"/>
<path d="M132.624 58.2049C134.136 58.6081 136.051 54.6625 135.835 52.8913C135.864 51.9265 135.101 51.1201 134.136 51.1057C133.891 51.1057 133.661 51.1489 133.43 51.2353C131.299 51.9697 130.032 57.5137 132.624 58.2049Z" fill="#53A5A8"/>
<path d="M116.611 54.4754C117.475 54.7922 118.454 54.533 119.045 53.8274C121.694 50.0258 120.182 48.5138 119.75 48.4274C116.697 47.5202 114.177 53.093 116.611 54.4754Z" fill="#BC8CE4"/>
<path d="M176.544 102.859C179.539 114.005 195.235 162.562 195.278 162.677C196.085 165.471 197.05 168.221 198.173 170.914C198.389 171.389 199.037 171.029 198.95 170.568C198.029 165.586 179.813 109.527 177.25 102.643C177.106 102.255 176.414 102.399 176.544 102.859Z" fill="#FFA502"/>
<path d="M90.4752 179.712C93.1968 173.967 117.13 108.072 118.339 104.4C118.454 104.055 117.936 103.939 117.821 104.242C109.858 123.163 102.946 142.546 95.76 161.741C93.6 167.515 91.0944 173.319 89.4384 179.237C89.2656 179.871 90.1872 180.303 90.4752 179.712Z" fill="#FFA502"/>
<path d="M115.689 134.41C114.926 136.728 114.307 139.09 113.832 141.48C113.76 141.754 113.918 142.042 114.192 142.114C114.465 142.186 114.753 142.027 114.825 141.754C115.646 139.464 116.323 137.131 116.827 134.755C119.232 125.971 120.24 121.939 122.169 114.135C122.256 113.731 121.651 113.544 121.55 113.947C120.182 118.512 116.309 132.149 115.689 134.41Z" fill="#FFA502"/>
<path d="M140.256 117.994C140.213 115.733 139.853 113.544 139.953 111.269C139.982 110.751 139.147 110.751 139.118 111.269C138.931 113.544 139.061 115.848 139.521 118.095C139.565 118.296 139.766 118.426 139.968 118.383C140.126 118.325 140.256 118.167 140.256 117.994Z" fill="#FFA502"/>
<path d="M173.189 125.525C176.674 136.8 182.059 159.149 184.176 164.074C184.421 164.635 185.126 164.189 185.069 163.699C184.478 159.898 177.941 139.162 173.923 125.309C173.765 124.834 173.03 125.05 173.189 125.525Z" fill="#FFA502"/>
<path d="M130.09 171.749C130.334 172.095 130.954 171.778 130.709 171.403C117.058 150.264 131.832 123.754 146.851 129.024C142.762 132.552 140.573 141.408 144.389 148.752C143.654 148.723 142.877 148.666 142.128 148.623C141.71 148.623 141.365 148.954 141.365 149.386C141.365 149.458 141.379 149.515 141.394 149.587C141.739 150.423 142.042 151.258 142.387 152.093C141.653 152.122 140.933 152.122 140.198 152.151C139.81 152.151 139.493 152.453 139.493 152.842C139.579 154.109 139.68 155.376 139.766 156.672C138.442 156.586 137.088 156.514 135.749 156.427C135.374 156.442 135.086 156.73 135.072 157.104C134.986 158.803 134.885 160.531 134.77 162.231C133.531 162.144 132.307 162.043 131.069 162.043C130.752 162.058 130.493 162.317 130.478 162.634C130.694 164.448 130.694 166.306 130.91 168.135C130.925 168.322 131.083 168.466 131.27 168.451C131.443 168.437 131.573 168.307 131.587 168.135C131.674 166.536 131.587 164.923 131.616 163.282C132.854 163.44 134.122 163.498 135.374 163.584C135.72 163.599 136.008 163.325 136.022 162.965C136.022 162.951 136.022 162.951 136.022 162.936C136.109 161.237 136.238 159.509 136.368 157.81C137.75 157.896 139.147 157.997 140.501 158.112C140.89 158.112 141.206 157.795 141.206 157.407C141.12 156.111 141.048 154.843 140.962 153.547C141.797 153.519 142.632 153.519 143.424 153.49C143.842 153.49 144.158 153.144 144.158 152.727C144.158 152.655 144.144 152.597 144.13 152.525C143.827 151.719 143.539 150.955 143.237 150.149L145.771 150.336C146.218 150.322 146.563 149.947 146.549 149.501C146.549 149.371 146.506 149.242 146.448 149.127C143.654 144.591 143.179 139.003 145.152 134.064C145.915 132.423 146.808 130.853 147.802 129.341C149.861 130.291 151.488 131.991 152.338 134.093C152.525 134.539 153.043 134.741 153.49 134.554C153.662 134.482 153.806 134.352 153.907 134.179C154.181 133.589 158.285 124.243 161.813 120.442C167.53 114.307 172.526 112.234 172.742 111.456C173.117 110.103 162.245 112.882 157.09 114.61C144.086 118.93 137.16 124.517 130.09 133.819C122.544 143.626 121.522 160.085 130.09 171.749Z" fill="#BC8CE4"/>
<path d="M145.742 16.7906C146.577 17.669 147.974 17.6978 148.853 16.8482C149.457 16.2722 149.673 15.3938 149.429 14.5874C149.141 13.3778 147.931 12.6434 146.721 12.9314C146.246 13.0466 145.814 13.3202 145.497 13.6946C145.123 14.1122 144.921 14.6738 144.936 15.2354C144.993 15.8402 145.281 16.4018 145.742 16.7906Z" fill="#BC8CE4"/>
<path d="M82.2193 120.317C81.3841 119.635 79.7521 119.53 79.2673 120.495C79.2433 120.538 77.5873 122.621 79.7521 123.879C80.7361 124.407 81.9649 124.133 82.6273 123.235C83.2465 122.304 83.0737 121.051 82.2193 120.317Z" fill="#CC5858"/>
<path d="M67.536 169.066C67.128 168.696 66.6528 168.394 66.1392 168.183C66.6624 167.597 67.1232 166.954 67.5168 166.277C67.6176 166.08 67.3968 165.826 67.1856 165.946C66.4848 166.455 65.88 167.098 65.4096 167.823C64.7568 167.496 64.0848 167.208 63.4224 166.901C63.3072 166.839 63.168 166.882 63.1008 166.997C63.0432 167.107 63.0768 167.232 63.1776 167.304C63.7776 167.688 64.3776 168.058 64.992 168.423C64.6224 168.97 64.32 169.565 64.0992 170.194C64.0368 170.405 64.3248 170.583 64.464 170.419C64.8912 169.911 65.2608 169.354 65.6544 168.816C66.1392 169.147 66.6816 169.397 67.2528 169.546C67.4112 169.584 67.5744 169.483 67.6128 169.32C67.632 169.239 67.608 169.138 67.536 169.066Z" fill="#F4B94B"/>
<path d="M64.6896 51.3314C64.992 49.9778 64.752 48.653 64.8384 47.4482C63.6816 48.0914 62.496 48.6818 61.272 49.2242C62.4576 49.8578 63.5952 50.5586 64.6896 51.3314Z" fill="#53A5A8"/>
<path d="M92.0067 34.5361C92.0019 35.2945 91.9491 36.0481 91.8531 36.8017C91.6851 37.5313 91.5651 38.2705 91.4883 39.0193C91.4931 39.1681 91.6227 39.2833 91.7715 39.2737C91.8531 39.2689 91.9395 39.2305 91.9875 39.1537C92.8515 37.8961 92.6979 35.8897 92.3907 34.4977C92.3523 34.2673 92.0163 34.3249 92.0067 34.5361Z" fill="#CC5858"/>
<path d="M93.6866 39.5713C94.0274 38.7553 94.2242 37.8865 94.2626 36.9985C94.301 36.3073 94.493 35.1073 93.9746 34.5793C93.9026 34.5025 93.7826 34.4977 93.7058 34.5745C93.6914 34.5889 93.6818 34.5985 93.6674 34.6177C93.3602 35.2129 93.6482 36.0865 93.6674 36.7393C93.7298 37.6609 93.6434 38.5921 93.3986 39.4849C93.3314 39.6289 93.6098 39.7393 93.6866 39.5713Z" fill="#CC5858"/>
<path d="M213.567 37.7426C213.183 38.8178 214.277 39.8786 215.247 40.0466C216.37 40.2146 217.431 39.4802 217.666 38.3666C217.959 37.3058 217.373 36.2018 216.327 35.8514C215.463 35.5634 213.984 35.7554 213.85 36.8498C213.85 37.0034 213.97 37.1234 214.123 37.1234C214.147 37.1234 214.167 37.1186 214.195 37.1186C214.752 36.9458 215.155 36.581 215.779 36.7154C217.253 37.0418 216.749 39.173 215.511 39.0962C214.704 39.0578 214.263 38.3858 214.003 37.7186C213.96 37.5986 213.826 37.541 213.701 37.589C213.643 37.6226 213.586 37.6802 213.567 37.7426Z" fill="#183D6A"/>
<path d="M243.73 91.8097C242.894 91.1281 241.262 91.0225 240.778 91.9873C240.754 92.0305 239.098 94.1137 241.262 95.3713C242.246 95.8993 243.475 95.6257 244.138 94.7281C244.752 93.7969 244.579 92.5393 243.73 91.8097Z" fill="#183D6A"/>
<path d="M183.024 25.877C182.616 25.5074 182.141 25.205 181.627 24.9938C182.15 24.4082 182.611 23.765 183.005 23.0882C183.105 22.8914 182.885 22.637 182.673 22.757C181.973 23.2658 181.368 23.909 180.897 24.6338C180.245 24.3074 179.573 24.0194 178.91 23.7122C178.795 23.6498 178.656 23.693 178.589 23.8082C178.531 23.9186 178.565 24.0434 178.665 24.1154C179.265 24.4994 179.865 24.869 180.48 25.2338C180.11 25.781 179.808 26.3762 179.587 27.005C179.525 27.2162 179.813 27.3938 179.952 27.2306C180.379 26.7218 180.749 26.165 181.142 25.6274C181.627 25.9586 182.169 26.2082 182.741 26.357C182.899 26.3954 183.062 26.2946 183.101 26.1314C183.12 26.0498 183.096 25.949 183.024 25.877Z" fill="#CC5858"/>
<path d="M237.221 61.5171C237.216 62.2755 237.163 63.0291 237.067 63.7827C236.899 64.5123 236.779 65.2515 236.703 66.0003C236.707 66.1491 236.837 66.2643 236.986 66.2547C237.067 66.2499 237.154 66.2115 237.202 66.1347C238.066 64.8771 237.912 62.8707 237.605 61.4787C237.567 61.2483 237.226 61.3059 237.221 61.5171Z" fill="#53A5A8"/>
<path d="M238.901 66.5569C239.242 65.7409 239.439 64.8721 239.477 63.9841C239.515 63.2929 239.707 62.0929 239.189 61.5649C239.117 61.4881 238.997 61.4833 238.92 61.5601C238.906 61.5745 238.896 61.5841 238.882 61.6033C238.575 62.1985 238.863 63.0721 238.882 63.7249C238.944 64.6465 238.858 65.5777 238.613 66.4705C238.546 66.6145 238.824 66.7297 238.901 66.5569Z" fill="#53A5A8"/>
<path d="M49.7809 84.8977C49.3969 85.9729 50.4913 87.0337 51.4609 87.2017C52.5841 87.3697 53.6449 86.6353 53.8801 85.5217C54.1729 84.4609 53.5873 83.3569 52.5409 83.0065C51.6769 82.7185 50.1985 82.9105 50.0641 84.0049C50.0641 84.1585 50.1841 84.2785 50.3377 84.2785C50.3617 84.2785 50.3809 84.2737 50.4097 84.2737C50.9665 84.1009 51.3697 83.7361 51.9937 83.8705C53.4673 84.1969 52.9633 86.3281 51.7249 86.2513C50.9185 86.2129 50.4769 85.5409 50.2177 84.8737C50.1745 84.7537 50.0401 84.6961 49.9153 84.7441C49.8577 84.7777 49.8001 84.8353 49.7809 84.8977Z" fill="#183D6A"/>
<path d="M212.203 123.226C211.819 124.301 212.914 125.362 213.883 125.53C215.006 125.698 216.067 124.963 216.302 123.85C216.595 122.789 216.01 121.685 214.963 121.335C214.099 121.047 212.621 121.239 212.486 122.333C212.486 122.487 212.606 122.607 212.76 122.607C212.784 122.607 212.803 122.602 212.832 122.602C213.389 122.429 213.792 122.064 214.416 122.199C215.89 122.525 215.386 124.656 214.147 124.579C213.341 124.541 212.899 123.869 212.64 123.202C212.597 123.082 212.462 123.024 212.338 123.072C212.275 123.101 212.222 123.159 212.203 123.226Z" fill="#CC5858"/>
<path d="M130.363 8.25136C130.666 6.89776 130.426 5.57296 130.512 4.36816C129.355 5.01136 128.17 5.60176 126.946 6.14416C128.136 6.77296 129.279 7.47376 130.363 8.25136Z" fill="#53A5A8"/>
<path d="M221.525 155.275C221.141 156.351 222.235 157.411 223.205 157.579C224.328 157.747 225.389 157.013 225.624 155.899C225.917 154.839 225.331 153.735 224.285 153.384C223.421 153.096 221.943 153.288 221.808 154.383C221.808 154.536 221.928 154.656 222.082 154.656C222.106 154.656 222.125 154.651 222.154 154.651C222.711 154.479 223.114 154.114 223.738 154.248C225.211 154.575 224.707 156.706 223.469 156.629C222.663 156.591 222.221 155.919 221.962 155.251C221.919 155.131 221.784 155.074 221.659 155.122C221.597 155.151 221.544 155.208 221.525 155.275Z" fill="#BA8C42"/>
<path d="M82.6993 120.317C81.8641 119.635 80.2321 119.53 79.7473 120.495C79.7233 120.538 78.0673 122.621 80.2321 123.879C81.2161 124.407 82.4449 124.133 83.1073 123.235C83.7265 122.304 83.5537 121.051 82.6993 120.317Z" fill="#CC5858"/>
<path d="M68.016 169.066C67.608 168.696 67.1328 168.394 66.6192 168.183C67.1424 167.597 67.6032 166.954 67.9968 166.277C68.0976 166.08 67.8768 165.826 67.6656 165.946C66.9648 166.455 66.36 167.098 65.8896 167.823C65.2368 167.496 64.5648 167.208 63.9024 166.901C63.7872 166.839 63.648 166.882 63.5808 166.997C63.5232 167.107 63.5568 167.232 63.6576 167.304C64.2576 167.688 64.8576 168.058 65.472 168.423C65.1024 168.97 64.8 169.565 64.5792 170.194C64.5168 170.405 64.8048 170.583 64.944 170.419C65.3712 169.911 65.7408 169.354 66.1344 168.816C66.6192 169.147 67.1616 169.397 67.7328 169.546C67.8912 169.584 68.0544 169.483 68.0928 169.32C68.112 169.239 68.088 169.138 68.016 169.066Z" fill="#F4B94B"/>
<path d="M65.1696 51.3314C65.472 49.9778 65.232 48.653 65.3184 47.4482C64.1616 48.0914 62.976 48.6818 61.752 49.2242C62.9376 49.8578 64.0752 50.5586 65.1696 51.3314Z" fill="#53A5A8"/>
<path d="M92.4867 34.5361C92.4819 35.2945 92.4291 36.0481 92.3331 36.8017C92.1651 37.5313 92.0451 38.2705 91.9683 39.0193C91.9731 39.1681 92.1027 39.2833 92.2515 39.2737C92.3331 39.2689 92.4195 39.2305 92.4675 39.1537C93.3315 37.8961 93.1779 35.8897 92.8707 34.4977C92.8323 34.2673 92.4963 34.3249 92.4867 34.5361Z" fill="#CC5858"/>
<path d="M94.1665 39.5713C94.5073 38.7553 94.7041 37.8865 94.7425 36.9985C94.7809 36.3073 94.9729 35.1073 94.4545 34.5793C94.3825 34.5025 94.2625 34.4977 94.1857 34.5745C94.1713 34.5889 94.1617 34.5985 94.1473 34.6177C93.8401 35.2129 94.1281 36.0865 94.1473 36.7393C94.2097 37.6609 94.1233 38.5921 93.8785 39.4849C93.8113 39.6289 94.0897 39.7393 94.1665 39.5713Z" fill="#CC5858"/>
<path d="M214.047 37.7426C213.663 38.8178 214.757 39.8786 215.727 40.0466C216.85 40.2146 217.911 39.4802 218.146 38.3666C218.439 37.3058 217.853 36.2018 216.807 35.8514C215.943 35.5634 214.464 35.7554 214.33 36.8498C214.33 37.0034 214.45 37.1234 214.603 37.1234C214.627 37.1234 214.647 37.1186 214.675 37.1186C215.232 36.9458 215.635 36.581 216.259 36.7154C217.733 37.0418 217.229 39.173 215.991 39.0962C215.184 39.0578 214.743 38.3858 214.483 37.7186C214.44 37.5986 214.306 37.541 214.181 37.589C214.123 37.6226 214.066 37.6802 214.047 37.7426Z" fill="#183D6A"/>
<path d="M244.21 91.8097C243.374 91.1281 241.742 91.0225 241.258 91.9873C241.234 92.0305 239.578 94.1137 241.742 95.3713C242.726 95.8993 243.955 95.6257 244.618 94.7281C245.232 93.7969 245.059 92.5393 244.21 91.8097Z" fill="#183D6A"/>
<path d="M183.504 25.877C183.096 25.5074 182.621 25.205 182.108 24.9938C182.631 24.4082 183.092 23.765 183.485 23.0882C183.586 22.8914 183.365 22.637 183.154 22.757C182.453 23.2658 181.848 23.909 181.378 24.6338C180.725 24.3074 180.053 24.0194 179.391 23.7122C179.276 23.6498 179.136 23.693 179.069 23.8082C179.012 23.9186 179.045 24.0434 179.146 24.1154C179.746 24.4994 180.346 24.869 180.96 25.2338C180.591 25.781 180.288 26.3762 180.068 27.005C180.005 27.2162 180.293 27.3938 180.432 27.2306C180.86 26.7218 181.229 26.165 181.623 25.6274C182.108 25.9586 182.65 26.2082 183.221 26.357C183.38 26.3954 183.543 26.2946 183.581 26.1314C183.6 26.0498 183.576 25.949 183.504 25.877Z" fill="#CC5858"/>
<path d="M237.701 61.5171C237.696 62.2755 237.643 63.0291 237.547 63.7827C237.379 64.5123 237.259 65.2515 237.183 66.0003C237.187 66.1491 237.317 66.2643 237.466 66.2547C237.547 66.2499 237.634 66.2115 237.682 66.1347C238.546 64.8771 238.392 62.8707 238.085 61.4787C238.047 61.2483 237.706 61.3059 237.701 61.5171Z" fill="#53A5A8"/>
<path d="M239.381 66.5569C239.722 65.7409 239.919 64.8721 239.957 63.9841C239.995 63.2929 240.187 62.0929 239.669 61.5649C239.597 61.4881 239.477 61.4833 239.4 61.5601C239.386 61.5745 239.376 61.5841 239.362 61.6033C239.055 62.1985 239.343 63.0721 239.362 63.7249C239.424 64.6465 239.338 65.5777 239.093 66.4705C239.026 66.6145 239.304 66.7297 239.381 66.5569Z" fill="#53A5A8"/>
<path d="M50.2609 84.8977C49.8769 85.9729 50.9713 87.0337 51.9409 87.2017C53.0641 87.3697 54.1249 86.6353 54.3601 85.5217C54.6529 84.4609 54.0673 83.3569 53.0209 83.0065C52.1569 82.7185 50.6785 82.9105 50.5441 84.0049C50.5441 84.1585 50.6641 84.2785 50.8177 84.2785C50.8417 84.2785 50.8609 84.2737 50.8897 84.2737C51.4465 84.1009 51.8497 83.7361 52.4737 83.8705C53.9473 84.1969 53.4433 86.3281 52.2049 86.2513C51.3985 86.2129 50.9569 85.5409 50.6977 84.8737C50.6545 84.7537 50.5201 84.6961 50.3953 84.7441C50.3377 84.7777 50.2801 84.8353 50.2609 84.8977Z" fill="#183D6A"/>
<path d="M212.683 123.226C212.299 124.301 213.394 125.362 214.363 125.53C215.486 125.698 216.547 124.963 216.782 123.85C217.075 122.789 216.49 121.685 215.443 121.335C214.579 121.047 213.101 121.239 212.966 122.333C212.966 122.487 213.086 122.607 213.24 122.607C213.264 122.607 213.283 122.602 213.312 122.602C213.869 122.429 214.272 122.064 214.896 122.199C216.37 122.525 215.866 124.656 214.627 124.579C213.821 124.541 213.379 123.869 213.12 123.202C213.077 123.082 212.942 123.024 212.818 123.072C212.755 123.101 212.702 123.159 212.683 123.226Z" fill="#CC5858"/>
<path d="M130.843 8.25136C131.146 6.89776 130.906 5.57296 130.992 4.36816C129.835 5.01136 128.65 5.60176 127.426 6.14416C128.616 6.77296 129.759 7.47376 130.843 8.25136Z" fill="#53A5A8"/>
<path d="M222.005 155.275C221.621 156.351 222.715 157.411 223.685 157.579C224.808 157.747 225.869 157.013 226.104 155.899C226.397 154.839 225.811 153.735 224.765 153.384C223.901 153.096 222.423 153.288 222.288 154.383C222.288 154.536 222.408 154.656 222.562 154.656C222.586 154.656 222.605 154.651 222.634 154.651C223.191 154.479 223.594 154.114 224.218 154.248C225.691 154.575 225.187 156.706 223.949 156.629C223.143 156.591 222.701 155.919 222.442 155.251C222.399 155.131 222.264 155.074 222.139 155.122C222.077 155.151 222.024 155.208 222.005 155.275Z" fill="#BA8C42"/>
</svg>
