<svg width="288" height="240" viewBox="0 0 288 240" fill="none" xmlns="http://www.w3.org/2000/svg">
<path d="M51.6665 69.1648C51.4723 69.1648 51.2723 69.1589 51.0781 69.153L53.6374 77.2602C53.8492 76.9836 54.0727 76.7248 54.308 76.4659C54.5551 76.1247 54.8022 75.7893 55.0611 75.454L53.0608 69.1118C52.5901 69.1471 52.1253 69.1648 51.6665 69.1648Z" fill="#232933"/>
<path d="M72.1699 129.645L70.3637 123.921C70.2461 124.539 70.1284 125.156 69.9931 125.762C69.8519 126.38 69.7107 126.998 69.5342 127.61L71.0933 132.54C71.3874 131.599 71.7051 130.575 72.1699 129.645Z" fill="#232933"/>
<path d="M78.7353 156.032C79.3295 155.996 79.9178 156.02 80.512 156.073L78.8765 150.884C78.6882 151.037 78.4764 151.172 78.2352 151.26C77.9293 151.378 77.6116 151.402 77.2939 151.366C77.235 151.396 77.1821 151.431 77.1233 151.46C77.1056 151.466 77.088 151.472 77.0703 151.484L78.4882 155.967C78.5706 155.996 78.6529 156.008 78.7353 156.032Z" fill="#232933"/>
<path d="M95.0319 185.325C94.8201 184.883 94.6377 184.442 94.4789 183.989C92.3491 183.142 90.29 181.465 88.7192 179.324C87.9955 179.406 87.266 179.424 86.5776 179.512C88.7898 182.942 92.1609 185.542 95.5144 186.284C95.3496 185.966 95.1849 185.648 95.0319 185.325Z" fill="#232933"/>
<path d="M100.751 186.513L205.597 186.537C205.467 185.907 205.361 185.272 205.279 184.636L100.021 184.613C100.262 185.248 100.515 185.878 100.751 186.513Z" fill="#232933"/>
<path d="M84.3188 173.841C84.407 173.864 84.4894 173.882 84.5777 173.899C84.5835 173.899 84.6365 173.911 84.6659 173.911C84.6953 173.917 84.7483 173.923 84.76 173.923C85.1601 173.964 85.5602 173.964 85.9543 173.964C86.0249 173.964 86.0955 173.964 86.1603 173.964L82.0596 160.986C81.3772 160.915 80.6888 160.809 80.0063 160.803L84.1011 173.782C84.1776 173.799 84.2482 173.823 84.3188 173.841Z" fill="#232933"/>
<path d="M218.634 33.8477C216.769 27.7291 211.068 22.7459 205.92 22.7283L46.2539 22.3105H46.2303C43.9829 22.3105 42.0591 23.2401 40.8177 24.9345C39.1704 27.176 38.8645 30.4707 39.9705 33.9712L49.1484 63.0346C49.6897 62.5816 50.2192 62.1227 50.6957 61.6227L41.7826 33.4005C40.8589 30.4824 41.0648 27.8055 42.3474 26.0582C43.2357 24.8462 44.5771 24.2109 46.2303 24.2109H46.248L205.914 24.6286C210.286 24.6403 215.175 29.0234 216.816 34.4007L232.766 86.7149C233.331 86.4089 233.931 86.1971 234.548 86.0442L218.634 33.8477Z" fill="#232933"/>
<path d="M220.511 186.542L235.113 186.548C234.895 185.919 234.701 185.289 234.531 184.648L220.499 184.642C220.511 185.277 220.517 185.907 220.511 186.542Z" fill="#232933"/>
<path d="M261.7 175.094L254.946 152.937C253.963 152.208 253.057 151.372 252.216 150.501L259.882 175.653C260.747 178.488 260.517 181.095 259.252 182.807C258.358 184.013 257.017 184.654 255.375 184.654H252.286C252.398 185.289 252.51 185.925 252.598 186.554H255.375C257.611 186.554 259.535 185.625 260.782 183.942C262.406 181.736 262.741 178.518 261.7 175.094Z" fill="#232933"/>
<path d="M214.904 38.8956C193.142 38.7427 171.379 38.6485 149.623 38.6073C127.814 38.5662 105.993 38.5367 84.1656 38.5367C71.9166 38.5367 59.6558 38.5309 47.4186 38.6015C46.6773 38.6073 47.1597 40.1841 47.9186 40.1958C69.7927 40.4253 91.6138 40.5135 113.406 40.5782C135.232 40.6371 157.054 40.7253 178.834 40.7312C191.047 40.7371 203.255 40.7253 215.451 40.6959C216.292 40.69 215.763 38.9015 214.904 38.8956Z" fill="#232933"/>
<path d="M54.5373 31.6417C55.0786 33.3713 54.3608 34.7657 52.9253 34.7657C51.4898 34.7598 49.8895 33.3596 49.3424 31.6299C48.7952 29.9002 49.5189 28.5059 50.9544 28.5059C52.3899 28.5117 53.996 29.912 54.5373 31.6417Z" fill="#F87171"/>
<path d="M64.0627 31.6651C64.604 33.3948 63.8862 34.7891 62.4507 34.7833C61.0152 34.7774 59.4149 33.3772 58.8737 31.6475C58.3324 29.9178 59.0502 28.5234 60.4857 28.5234C61.9212 28.5352 63.5215 29.9413 64.0627 31.6651Z" fill="#F59E0B"/>
<path d="M73.5874 31.6886C74.1287 33.4182 73.405 34.8126 71.9754 34.8067C70.5399 34.8008 68.9396 33.4006 68.3984 31.6709C67.8571 29.9412 68.5807 28.5469 70.0104 28.5469C71.4459 28.5586 73.0462 29.9647 73.5874 31.6886Z" fill="#14B8A6"/>
<path d="M227.895 205.345C225.235 204.663 222.041 204.192 218.493 203.875C218.381 204.298 218.187 204.686 217.852 205.01C217.252 205.598 216.387 205.816 215.587 205.975C215.587 205.969 215.587 205.969 215.587 205.963C215.534 205.969 215.493 205.987 215.434 205.993C215.069 206.034 214.875 205.71 214.881 205.398C212.704 205.669 210.533 205.981 208.356 206.228C207.309 206.346 206.25 206.357 205.197 206.31C205.103 206.428 204.967 206.516 204.762 206.516C203.744 206.522 202.561 206.222 202.02 205.287C202.014 205.281 202.008 205.269 202.002 205.263C201.967 205.228 201.926 205.192 201.89 205.151C201.385 204.563 201.455 203.939 201.732 203.357C182.281 203.557 161.213 205.787 158.301 205.192C156.595 204.845 158.613 204.292 158.866 203.857C159.154 203.357 157.713 203.11 156.701 203.127C149.159 203.257 122.772 205.898 120.636 208.158C119.536 209.322 122.796 210.04 124.537 210.234C152.7 213.341 185.888 210.405 188.018 210.54C190.718 210.711 186.906 212.164 191.742 212.188C216.74 212.311 227.577 209.093 229.577 207.493C230.601 206.699 229.471 205.751 227.895 205.345Z" fill="#D0D6DD"/>
<path d="M135.544 150.001L129.549 149.966C129.732 150.325 129.902 150.689 130.091 151.048L136.192 151.078C135.98 150.719 135.762 150.36 135.544 150.001Z" fill="#8B95A5"/>
<path d="M145.505 150.054L139.116 150.019C139.31 150.378 139.498 150.737 139.692 151.096L145.982 151.125C145.811 150.772 145.646 150.419 145.505 150.054Z" fill="#8B95A5"/>
<path d="M154.906 151.172C154.724 150.813 154.53 150.454 154.324 150.107L148.446 150.072C148.546 150.425 148.646 150.784 148.729 151.143L154.906 151.172Z" fill="#8B95A5"/>
<path d="M121.219 152.725C121.295 152.737 121.377 152.743 121.454 152.755C121.789 152.69 122.125 152.631 122.46 152.584C122.472 152.578 122.484 152.578 122.495 152.572L122.331 152.272C122.036 151.725 122.119 151.343 122.278 151.184C122.419 151.037 122.713 151.007 122.925 151.007L126.431 151.025C126.296 150.66 126.149 150.301 125.996 149.943L123.207 149.925C122.372 149.919 121.654 150.178 121.189 150.649C120.654 151.196 120.566 151.937 120.936 152.708C121.03 152.708 121.125 152.708 121.219 152.725Z" fill="#8B95A5"/>
<path d="M125.543 158.22L123.701 154.814C123.46 154.837 123.213 154.867 122.972 154.89C122.701 154.92 122.424 154.943 122.148 154.973L123.901 158.214C124.448 158.22 124.995 158.226 125.543 158.22Z" fill="#8B95A5"/>
<path d="M131.656 160.568H128.943C128.243 160.568 127.449 160.262 126.808 159.797C126.202 159.891 125.59 159.95 124.99 159.979C125.872 160.944 127.325 161.638 128.661 161.638H132.356C132.126 161.279 131.891 160.921 131.656 160.568Z" fill="#8B95A5"/>
<path d="M140.38 160.568L133.797 160.562C134.038 160.921 134.285 161.274 134.532 161.633H141.133C140.88 161.28 140.627 160.927 140.38 160.568Z" fill="#8B95A5"/>
<path d="M148.947 160.574L143.21 160.568C143.387 160.85 143.558 161.144 143.693 161.444C143.722 161.509 143.728 161.568 143.722 161.633H149.812C149.506 161.292 149.217 160.939 148.947 160.574Z" fill="#8B95A5"/>
<path d="M157.625 161.068C157.536 160.903 157.454 160.738 157.366 160.58H152.071C152.218 160.786 152.365 160.991 152.5 161.209C152.589 161.35 152.571 161.503 152.489 161.639H157.942C157.836 161.45 157.725 161.262 157.625 161.068Z" fill="#8B95A5"/>
<path d="M160.337 152.761C160.378 152.755 160.413 152.743 160.454 152.749C160.578 152.761 160.707 152.767 160.837 152.778C161.196 152.743 161.56 152.72 161.919 152.702L161.784 152.449C161.096 151.155 159.325 150.137 157.742 150.125H157.271C157.277 150.149 157.283 150.166 157.295 150.19C157.477 150.531 157.654 150.872 157.807 151.219C158.754 151.355 159.801 151.99 160.337 152.761Z" fill="#8B95A5"/>
<path d="M163.273 157.644C163.714 157.662 164.149 157.685 164.579 157.72L162.82 154.402C162.267 154.402 161.725 154.379 161.196 154.326L162.931 157.591C163.043 157.614 163.161 157.626 163.273 157.644Z" fill="#8B95A5"/>
<path d="M165.255 159.426C164.808 159.45 164.361 159.467 163.914 159.491C164.108 159.944 164.043 160.273 163.908 160.415C163.772 160.556 163.496 160.585 163.29 160.585H159.689C159.848 160.915 160.007 161.238 160.148 161.574C160.16 161.597 160.16 161.615 160.16 161.638H163.002C163.802 161.638 164.49 161.385 164.937 160.926C165.332 160.521 165.473 159.997 165.367 159.438C165.337 159.432 165.296 159.432 165.255 159.426Z" fill="#8B95A5"/>
<path d="M187.488 150.272L181.763 150.243C181.928 150.596 182.093 150.949 182.263 151.296L188.088 151.325C187.894 150.972 187.688 150.619 187.488 150.272Z" fill="#8B95A5"/>
<path d="M196.989 150.325L190.888 150.29C191.071 150.637 191.247 150.99 191.424 151.337L197.424 151.366C197.272 151.025 197.124 150.678 196.989 150.325Z" fill="#8B95A5"/>
<path d="M205.955 151.414C205.785 151.061 205.608 150.713 205.414 150.372L199.801 150.343C199.89 150.69 199.984 151.037 200.06 151.384L205.955 151.414Z" fill="#8B95A5"/>
<path d="M173.78 152.931C173.85 152.943 173.927 152.949 174.003 152.961C174.321 152.896 174.645 152.837 174.962 152.796C174.974 152.79 174.986 152.79 174.998 152.784L174.845 152.49C174.568 151.954 174.65 151.584 174.803 151.425C174.945 151.284 175.221 151.254 175.427 151.254L178.769 151.272C178.645 150.919 178.51 150.566 178.369 150.219L175.709 150.201C174.909 150.195 174.227 150.448 173.78 150.907C173.262 151.437 173.168 152.166 173.515 152.919C173.603 152.913 173.697 152.919 173.78 152.931Z" fill="#8B95A5"/>
<path d="M177.839 158.297L176.127 154.967C175.892 154.99 175.662 155.014 175.433 155.037C175.174 155.067 174.909 155.09 174.645 155.114L176.274 158.279C176.792 158.297 177.316 158.303 177.839 158.297Z" fill="#8B95A5"/>
<path d="M183.646 160.591H181.057C180.392 160.591 179.634 160.291 179.028 159.838C178.445 159.927 177.869 159.991 177.292 160.015C178.122 160.962 179.504 161.633 180.775 161.633H184.299C184.087 161.286 183.864 160.939 183.646 160.591Z" fill="#8B95A5"/>
<path d="M191.971 160.591L185.688 160.585C185.911 160.938 186.146 161.28 186.376 161.627H192.677C192.442 161.286 192.206 160.944 191.971 160.591Z" fill="#8B95A5"/>
<path d="M200.149 160.597H194.671C194.836 160.874 194.995 161.156 195.119 161.45C195.148 161.509 195.148 161.574 195.142 161.633H200.955C200.672 161.297 200.402 160.956 200.149 160.597Z" fill="#8B95A5"/>
<path d="M208.426 161.08C208.344 160.921 208.267 160.762 208.185 160.597H203.131C203.267 160.803 203.408 161.003 203.537 161.209C203.62 161.35 203.602 161.497 203.526 161.627H208.732C208.626 161.45 208.52 161.268 208.426 161.08Z" fill="#8B95A5"/>
<path d="M211.121 152.961C211.156 152.955 211.198 152.943 211.233 152.949C211.356 152.961 211.474 152.967 211.598 152.978C211.945 152.943 212.286 152.919 212.627 152.902L212.504 152.655C211.862 151.39 210.18 150.396 208.674 150.384H208.221C208.227 150.407 208.232 150.425 208.244 150.448C208.415 150.778 208.574 151.113 208.721 151.455C209.627 151.59 210.615 152.208 211.121 152.961Z" fill="#8B95A5"/>
<path d="M213.863 157.738C214.281 157.75 214.698 157.779 215.11 157.814L213.469 154.573C212.945 154.573 212.427 154.549 211.921 154.496L213.539 157.691C213.645 157.702 213.757 157.72 213.863 157.738Z" fill="#8B95A5"/>
<path d="M215.739 159.474C215.31 159.497 214.886 159.515 214.457 159.538C214.633 159.98 214.575 160.303 214.439 160.438C214.31 160.574 214.045 160.603 213.845 160.603H210.409C210.556 160.921 210.703 161.244 210.839 161.574C210.845 161.597 210.845 161.615 210.85 161.639H213.563C214.327 161.639 214.986 161.392 215.422 160.939C215.804 160.538 215.945 160.033 215.851 159.485C215.81 159.48 215.775 159.485 215.739 159.474Z" fill="#8B95A5"/>
<path d="M173.209 103.441C170.679 103.329 168.161 103.217 165.632 103.217H158.183C153.165 103.217 148.152 103.211 143.134 103.223C140.345 103.229 137.533 103.135 134.756 103.364C134.221 103.406 134.209 104.276 134.756 104.318C137.274 104.523 139.816 104.447 142.34 104.453C144.822 104.459 147.305 104.465 149.788 104.465H164.837C166.208 104.465 167.579 104.476 168.95 104.435C170.368 104.394 171.785 104.306 173.203 104.241C173.662 104.223 173.668 103.459 173.209 103.441Z" fill="#8B95A5"/>
<path d="M196.925 121.056C194.348 120.92 191.759 120.938 189.176 120.932C186.594 120.921 184.011 120.938 181.422 120.938C176.31 120.944 171.191 120.95 166.078 120.95C155.818 120.962 145.558 120.962 135.291 120.985C129.52 120.997 123.742 121.026 117.971 121.097C117.447 121.103 117.435 121.868 117.971 121.874C128.249 121.997 138.527 121.997 148.805 122.009C159.071 122.021 169.332 122.027 179.598 122.038C182.475 122.038 185.346 122.044 188.223 122.044C191.118 122.044 194.03 122.068 196.919 121.921C197.501 121.885 197.513 121.085 196.925 121.056Z" fill="#8B95A5"/>
<path d="M202.231 129.904C196.754 129.733 191.271 129.769 185.787 129.769C180.292 129.769 174.792 129.769 169.297 129.769C158.371 129.769 147.446 129.769 136.521 129.775C130.367 129.775 124.207 129.775 118.053 129.886C117.43 129.898 117.418 130.71 118.053 130.722C129.031 130.916 140.016 130.834 150.994 130.834C161.919 130.834 172.844 130.834 183.769 130.834C189.923 130.834 196.083 130.892 202.237 130.698C202.82 130.681 202.831 129.928 202.231 129.904Z" fill="#8B95A5"/>
<path d="M205.914 139.282C194.571 139.076 183.211 139.176 171.862 139.176C160.507 139.176 149.147 139.176 137.792 139.188C131.426 139.194 125.049 139.147 118.689 139.311C117.959 139.329 117.942 140.229 118.683 140.247C124.384 140.394 130.096 140.365 135.803 140.365C141.445 140.37 147.087 140.376 152.729 140.376C164.09 140.376 175.445 140.376 186.805 140.376C193.177 140.376 199.543 140.382 205.914 140.27C206.679 140.247 206.697 139.294 205.914 139.282Z" fill="#8B95A5"/>
<path d="M230.03 99.1108C230.207 99.0284 230.371 98.9166 230.513 98.7754C230.007 100.046 229.936 101.158 231.342 101.076C231.995 101.04 232.589 100.876 232.607 100.44C232.625 100.005 231.101 100.44 230.924 100.299C230.748 100.158 231.336 98.6872 231.713 97.7929C231.989 97.134 231.448 96.9104 231.136 97.4576C231.195 97.0222 231.172 96.5751 231.06 96.1456C231.519 95.9515 232.054 96.0985 232.342 96.5104C231.719 98.0577 232.642 99.6873 233.654 99.8697C234.99 100.158 236.308 99.3049 236.596 97.9694C236.672 97.6164 236.672 97.2575 236.59 96.9045C237.096 96.9045 239.002 97.1458 239.314 96.981C239.52 96.8692 239.891 96.2692 238.426 96.1515C237.708 96.0927 236.984 96.0868 236.255 96.0515C235.472 95.0219 234.007 94.8278 232.984 95.6043C232.948 95.6338 232.913 95.6573 232.878 95.6867C232.272 95.1337 231.395 94.9984 230.654 95.3337C229.883 94.4748 228.559 94.4042 227.7 95.1749C227.336 95.5043 227.1 95.9456 227.03 96.4339C226.765 98.3754 228.142 99.9639 230.03 99.1108ZM232.901 97.8341C233.178 97.1634 233.637 96.5869 234.225 96.1633C234.802 95.8397 235.084 96.1633 234.802 96.7398C234.46 97.3223 234.007 97.8341 233.472 98.2459C233.137 98.493 232.789 98.393 232.925 97.8282L232.901 97.8341ZM227.724 97.3223C227.983 96.5692 228.477 95.922 229.13 95.4631C229.642 95.1513 230.001 95.4631 229.707 95.9632C229.301 96.5869 228.836 97.1634 228.306 97.687C227.936 98.0518 227.559 97.8282 227.789 97.3164L227.724 97.3223Z" fill="#232933"/>
<path d="M230.471 91.057C230.548 90.4628 230.789 89.9039 231.166 89.4391C231.636 88.8861 231.318 88.4213 230.654 88.7567C229.959 89.1097 229.477 89.7686 229.342 90.5334C229.153 91.6336 230.36 91.8807 230.471 91.057Z" fill="#232933"/>
<path d="M236.996 92.2394C237.931 92.2629 238.408 89.6508 241.538 90.7921C242.114 91.0039 242.338 90.7921 241.938 90.3626C241.397 89.7802 238.779 88.833 237.137 90.5568C236.402 91.3275 236.284 92.2217 236.996 92.2394Z" fill="#232933"/>
<path d="M232.619 90.7923C232.983 88.7685 234.719 88.592 235.09 88.1037C235.201 87.9625 235.178 87.7566 235.037 87.6448C234.501 87.2153 231.824 88.3449 231.489 90.5335C231.377 91.2689 232.395 92.0219 232.619 90.7923Z" fill="#232933"/>
<path d="M231.619 110.036C232.272 110.136 232.507 107.607 232.495 107.412C234.666 107.63 236.79 106.683 238.079 104.93C238.308 104.594 238.008 104.212 237.743 104.494C236.308 106.042 234.225 106.818 232.125 106.589C227.865 106.089 228.942 101.988 228.995 100.005C228.983 99.823 228.83 99.6877 228.648 99.6935C228.506 99.6994 228.389 99.7994 228.348 99.9348C227.659 103.588 227.806 106.783 231.701 107.336C231.56 108.154 231.036 109.948 231.619 110.036Z" fill="#232933"/>
<path d="M229.671 93.5456C229.753 93.1867 229.789 92.816 229.771 92.4454C229.748 92.1218 228.971 91.7394 228.871 93.4044C228.824 94.2574 229.5 94.381 229.671 93.5456Z" fill="#232933"/>
<path d="M234.119 91.2392C234.148 91.5216 234.401 91.7275 234.684 91.6981C234.807 91.6863 234.919 91.6333 235.001 91.5451C235.819 90.6979 235.643 89.1212 239.196 88.8094C239.39 88.7858 239.532 88.6093 239.508 88.4152C239.496 88.3034 239.426 88.1975 239.326 88.1446C236.919 87.0914 233.842 89.633 234.119 91.2392Z" fill="#232933"/>
<path d="M240.078 94.0162C238.455 94.681 239.031 96.1107 240.078 95.4164C240.849 94.8634 241.885 94.8634 242.655 95.4164C242.891 95.54 243.091 95.2282 243.032 94.9869C242.85 94.2045 241.055 93.6161 240.078 94.0162Z" fill="#232933"/>
<path d="M238.578 92.4158C237.655 93.2453 238.314 94.2161 239.326 93.3689C240.861 92.0863 242.097 92.9159 242.708 93.0394C243.009 93.1041 243.144 92.7394 243.009 92.5276C242.361 91.4745 239.908 91.2097 238.578 92.4158Z" fill="#232933"/>
<path d="M240.243 101.076C239.384 100.982 239.378 101.152 239.331 101.758C239.237 102.959 238.49 108.377 238.755 109.46C238.831 109.636 239.037 109.713 239.208 109.636C239.284 109.601 239.349 109.536 239.384 109.46C239.602 108.789 239.537 105.435 240.049 101.982C241.861 102.188 242.655 100.452 242.814 98.9167C243.049 96.6164 240.92 95.4279 239.937 96.8752C239.549 97.4459 240.208 97.8107 240.514 97.3106C240.926 96.634 242.12 97.3106 241.902 98.9108C241.773 99.8757 241.414 101.205 240.243 101.076Z" fill="#232933"/>
<path d="M247.892 153.991C239.596 155.656 225.794 154.549 220.428 153.702C220.281 153.655 220.134 153.614 219.987 153.567C219.728 153.485 219.464 153.402 219.199 153.338C219.087 153.314 218.981 153.29 218.875 153.273C218.822 153.267 218.769 153.255 218.728 153.249C218.705 153.243 218.54 153.208 218.599 153.238C218.575 153.232 218.546 153.232 218.522 153.226C218.51 153.214 218.487 153.208 218.469 153.202C218.357 153.138 218.228 153.155 218.116 153.214C218.04 153.255 217.969 153.314 217.928 153.379C217.893 153.432 217.881 153.491 217.869 153.543C216.187 155.767 214.398 158.75 212.61 162.157C210.945 164.345 209.421 166.669 208.015 168.999C207.05 170.587 206.167 172.117 205.714 173.929C205.338 175.441 205.432 176.994 205.826 178.489C206.826 189.167 209.056 196.209 210.309 197.55C210.962 198.256 216.351 198.174 217.151 197.421C218.322 196.303 218.652 192.173 219.069 185.96C219.069 185.937 219.058 185.919 219.058 185.896C219.063 184.872 219.134 183.86 219.287 182.854C219.299 182.713 219.305 182.572 219.322 182.43C219.334 182.395 219.358 182.372 219.375 182.342C219.593 181.101 219.928 179.883 220.405 178.695C220.423 178.618 220.446 178.53 220.47 178.453C220.723 177.577 221.07 176.741 221.47 175.941C222.076 175.206 222.693 174.476 223.329 173.77C225.706 171.158 228.294 168.752 231.024 166.498C231.036 166.51 231.048 166.516 231.065 166.534C231.966 169.305 232.836 172.093 233.748 174.87C234.019 175.688 234.289 176.512 234.554 177.33C236.666 187.472 239.302 201.022 243.285 206.275C244.203 207.487 249.974 206.893 250.769 205.705C253.475 201.616 248.539 160.421 247.892 153.991Z" fill="#232933"/>
<path d="M235.09 101.765C235.213 101.394 234.578 100.9 234.278 101.423C234.084 101.765 233.866 102.376 232.389 102.576C231.413 102.706 231.66 103.212 232.336 103.247C233.154 103.294 234.696 102.977 235.09 101.765Z" fill="#232933"/>
<path d="M194.43 99.5997C195.319 99.6997 195.495 98.9348 194.66 98.6995C194.33 98.6054 193.448 98.3818 193.259 97.9347C192.971 97.2522 192.359 97.7817 192.553 98.4171C192.742 99.0525 193.73 99.5173 194.43 99.5997Z" fill="#232933"/>
<path d="M194.413 97.0225C194.319 97.0283 194.23 97.046 194.136 97.0519C193.807 97.0754 193.483 97.0636 193.16 97.046C193.36 97.4284 193.66 97.752 194.054 97.9579C195.295 98.758 195.542 97.8932 195.113 97.5167C194.813 97.2519 194.595 97.1401 194.413 97.0225Z" fill="#232933"/>
<path d="M196.03 100.723C195.807 100.458 195.56 100.217 195.289 100.005C195.007 99.7463 194.63 99.8346 194.677 100.382C194.848 100.835 195.224 101.176 195.689 101.3C195.913 101.352 196.354 101.188 196.03 100.723Z" fill="#232933"/>
<path d="M266.659 155.267C267.301 155.661 270.683 157.291 270.683 158.45C270.683 159.98 269.619 161.833 268.865 163.151C268.671 163.498 268.954 163.904 269.548 163.439C270.601 162.598 271.854 159.415 271.66 158.174C271.431 156.72 268.165 154.785 266.918 154.491C266.447 154.373 266.265 155.026 266.659 155.267Z" fill="#232933"/>
<path d="M265.412 160.462C266.048 160.621 267.53 160.462 267.883 160.745C268.236 161.027 268.142 161.898 268.242 162.386C268.371 163.021 269.525 162.557 269.089 160.903C268.801 159.821 267.901 159.638 266.918 159.644C266.401 159.621 265.883 159.65 265.377 159.75C265 159.833 265.083 160.374 265.412 160.462Z" fill="#232933"/>
<path d="M264.377 162.78C266.536 163.392 266.589 162.333 266.236 162.139C265.459 161.715 263.465 161.415 263.324 161.074C263.224 160.833 263.394 158.773 263.118 157.938C263.118 157.909 262.365 156.95 262.294 158.991C262.224 161.168 261.841 162.062 264.377 162.78Z" fill="#232933"/>
<path d="M259.146 213.123C259.488 213.123 259.623 212.559 259.241 212.488C256.928 212.064 246.515 211.358 244.615 211.382C244.238 211.388 244.091 212.006 244.503 212.076C246.397 212.406 256.828 213.253 259.146 213.123Z" fill="#232933"/>
<path d="M202.808 204.893C207.544 204.557 214.816 203.904 217.234 203.492C217.81 203.392 217.604 202.486 216.998 202.569C212.492 203.157 207.044 203.463 202.726 204.251C202.549 204.275 202.42 204.434 202.443 204.616C202.467 204.793 202.631 204.916 202.808 204.893Z" fill="#232933"/>
<path d="M201.873 206.399C203.732 207.111 214.01 206.569 216.522 206.399C218.375 206.275 219.205 206.04 219.093 202.81C219.034 201.357 218.64 199.939 217.946 198.668C217.846 198.427 217.575 198.315 217.334 198.409C217.093 198.509 216.981 198.78 217.075 199.021C217.081 199.033 217.087 199.045 217.093 199.056C217.805 200.48 218.14 202.069 218.052 203.657C217.981 205.222 217.693 205.281 214.634 205.481C211.092 205.74 207.538 205.81 203.985 205.687C203.102 205.646 201.314 205.61 201.779 204.245C202.485 202.151 208.48 200.057 210.345 199.256C210.539 199.168 210.621 198.939 210.533 198.745C210.462 198.586 210.292 198.497 210.115 198.527C207.55 199.174 205.097 200.21 202.838 201.586C200.249 203.181 199.89 205.634 201.873 206.399Z" fill="#232933"/>
<path d="M250.551 207.581C253.263 208.381 256.622 209.128 258.987 210.799C260.205 211.664 261.129 212.794 259.805 213.47C258.752 214.006 246.891 214.1 245.156 213.911C243.667 213.753 243.556 212.799 243.585 211.476C243.614 210.152 243.973 208.828 244.103 207.487C244.144 207.081 243.526 206.987 243.356 207.31C242.744 208.687 242.45 210.187 242.497 211.699C242.602 214.929 244.273 214.976 247.015 215.012C250.621 215.059 254.534 214.935 258.287 214.712C262.129 214.482 262.67 212.117 259.523 209.858C257.734 208.575 252.957 206.987 250.733 206.781C249.568 206.669 249.574 207.293 250.551 207.581Z" fill="#232933"/>
<path d="M257.299 135.923C256.646 133.375 252.21 120.085 249.457 116.667C246.574 113.09 245.115 112.431 242.085 111.354C241.679 111.207 241.873 110.777 242.291 110.813C243.95 111.219 245.533 111.872 246.992 112.754C248.633 112.131 251.339 111.078 250.039 108.418C248.515 105.294 240.997 105.477 240.373 105.659C240.279 106.812 240.273 107.959 240.202 108.712C240.796 108.354 241.355 107.954 241.891 107.512C242.344 107.136 242.82 107.371 242.167 107.983C240.296 109.742 235.096 114.013 232.46 113.837C232.066 113.837 230.571 112.195 230.977 107.877C230.477 107.659 228.506 108.971 227.265 110.354C227.794 110.377 228.312 110.501 228.795 110.725C228.942 110.819 228.977 111.013 228.883 111.16C228.83 111.236 228.748 111.289 228.653 111.301C224.194 110.63 214.422 110.695 211.557 109.101C209.209 107.795 203.338 99.9934 201.961 99.3227C201.579 99.1345 200.572 100.388 198.725 101.164C196.878 101.941 195.995 101.711 195.972 102.053C195.913 102.759 200.608 113.501 204.567 117.231C206.026 118.608 213.716 122.915 219.687 124.574C220.081 123.421 220.699 121.367 221.358 120.514C221.558 120.255 221.923 120.344 221.77 120.667C219.999 124.38 214.698 144.165 217.781 151.772C218.887 154.496 247.356 154.467 248.227 152.79C248.939 151.431 248.68 147.613 248.404 144.377C245.533 139.106 244.003 135.652 240.402 129.227C240.302 129.092 240.326 128.904 240.461 128.798C240.596 128.698 240.785 128.722 240.891 128.857C241.773 130.028 246.886 140.9 251.422 147.107C255.069 152.102 260.429 157.42 261.447 157.367C262.835 157.291 266.242 155.185 266.465 153.731C266.689 152.278 257.952 138.482 257.299 135.923Z" fill="#14B8A6"/>
<path d="M209.374 73.0068C209.292 73.0068 209.309 73.1362 209.392 73.1362C209.474 73.1421 209.456 73.0068 209.374 73.0068Z" fill="#232933"/>
<path d="M201.261 96.087C201.102 95.7752 200.966 95.481 200.931 95.1222C200.896 94.7574 200.908 94.3926 200.884 94.0279C200.819 92.8806 200.772 91.3922 199.925 90.5097C199.796 90.3744 199.525 90.2979 199.402 90.5038C198.601 91.8452 198.272 93.4454 198.325 94.9927C198.337 95.3575 198.472 95.8046 198.366 96.1517C198.248 96.5283 198.013 96.8577 197.901 97.246C197.689 97.9697 197.642 98.7169 197.795 99.4582C197.872 99.8229 198.413 99.7641 198.378 99.3817C198.295 98.6168 198.39 97.8461 198.701 97.1342C198.831 96.8401 199.031 96.5753 199.113 96.2635C199.201 95.9282 199.137 95.5869 199.107 95.2516C198.99 93.8926 199.26 92.61 199.743 91.3686C199.931 91.7216 200.031 92.1276 200.09 92.5159C200.196 93.1983 200.243 93.8926 200.255 94.5809C200.266 95.1987 200.319 95.7164 200.59 96.2812C200.878 96.893 201.008 97.5284 201.237 98.1521C201.372 98.5168 201.943 98.3639 201.89 97.9814C201.802 97.3225 201.555 96.6754 201.261 96.087Z" fill="#232933"/>
<path d="M102.816 90.9272L103.287 91.1978C104.881 92.1039 106.958 93.3452 108.84 94.5101C109.646 94.9572 110.352 95.3691 111.005 95.775L111.47 96.0633C113.159 97.1046 114.494 97.9283 114.994 99.2344C115.241 99.8816 115.247 100.205 115.306 102.335L115.335 103.482C115.453 106.236 115.512 109.354 115.506 112.742C115.524 116.767 115.459 120.573 115.312 124.062L115.277 125.397C115.2 128.186 115.188 128.616 114.882 129.192C114.188 130.481 112.5 129.622 110.364 128.539L109.788 128.251C108.982 127.851 108.111 127.374 107.146 126.809C104.804 125.627 102.239 124.262 100.286 123.156C100.086 123.044 99.886 122.932 99.6918 122.826C97.5327 121.65 95.8265 120.72 96.0383 117.143C96.0383 117.108 96.0442 117.073 96.0442 117.031C96.0854 116.396 96.6266 111.466 97.2091 106.247V106.159L97.2208 105.994L97.2091 105.941L97.4326 104.147C97.7798 104.053 98.121 103.935 98.4505 103.788L97.8209 109.542C97.5797 111.725 97.3856 113.507 97.3032 114.284C97.262 114.678 97.2208 115.055 97.1797 115.408C96.809 118.755 96.6678 120.008 99.1682 121.45C102.934 123.626 107.122 125.821 110.994 127.633C111.8 128.08 112.594 128.38 113.335 128.516C113.559 128.533 113.729 128.492 113.847 128.386C114.141 128.127 114.2 127.486 114.241 126.874C114.247 126.815 114.247 126.756 114.253 126.703C114.477 122.862 114.606 118.42 114.629 113.495C114.647 108.559 114.559 104.182 114.371 100.835C114.329 100.064 114.294 99.3344 113.5 98.5637C112.87 97.9989 112.211 97.5224 111.529 97.1341C108.387 95.0984 104.969 93.0275 101.892 91.3096C101.121 90.8801 100.616 90.733 100.351 90.8684C99.9566 91.0743 99.8448 92.0038 99.6977 93.2982C99.6683 93.5511 99.6389 93.8218 99.5977 94.1101C99.5271 94.6748 99.3565 96.1398 99.1329 98.0166L98.8034 100.782C98.4975 100.711 98.1857 100.676 97.8621 100.676C98.4328 96.0457 98.927 92.0274 99.0094 91.592C99.1564 90.7389 99.4506 90.2271 99.8977 90.0153C100.639 89.6505 101.651 90.2447 102.816 90.9272Z" fill="#14B8A6"/>
<path d="M110.717 99.7168C110.752 99.5344 110.911 99.4285 111.088 99.4638C111.293 99.505 111.499 99.7109 111.458 99.9227C111.258 107.224 110.876 121.126 110.887 121.473C110.899 121.661 110.776 121.82 110.587 121.838C110.37 121.856 110.099 121.661 110.076 121.379C109.952 120.226 110.393 104.818 110.64 100.664C110.67 100.187 110.693 99.858 110.717 99.7168Z" fill="#14B8A6"/>
<path d="M107.34 99.5875C107.346 99.4934 107.346 99.3993 107.352 99.311C107.381 98.7874 107.452 98.2814 107.552 97.8108L107.558 97.799C107.605 97.6343 107.752 97.546 107.917 97.5872C108.123 97.6343 108.329 97.9049 108.282 98.1049C108.287 98.1814 108.176 100.264 108.064 102.682L107.752 109.23C107.652 111.342 107.611 112.213 107.546 112.566H107.581C107.593 112.801 107.44 112.943 107.275 112.954C107.064 112.972 106.817 112.801 106.781 112.519C106.64 111.495 107.328 99.7876 107.34 99.5875C107.34 99.5875 107.34 99.5934 107.34 99.5875Z" fill="#14B8A6"/>
<path d="M104.587 95.9515C104.587 95.9692 104.587 95.9927 104.587 96.0221C104.587 96.1633 104.587 96.4222 104.54 96.987L104.516 97.2635C103.922 104.894 103.857 105.906 103.851 105.947C103.875 106.077 103.84 106.2 103.746 106.283C103.657 106.359 103.534 106.383 103.416 106.347C103.24 106.294 103.087 106.118 103.051 105.882C103.081 104.735 103.128 103.612 103.192 102.5C103.334 100.117 103.557 97.8224 103.869 95.6515C103.898 95.5397 103.975 95.4514 104.087 95.422C104.216 95.3926 104.357 95.4455 104.469 95.5691C104.575 95.6868 104.616 95.828 104.587 95.9515Z" fill="#14B8A6"/>
<path d="M46.8482 66.1998C47.6307 66.0233 48.372 65.7115 49.0485 65.2879C49.3015 65.0761 49.5604 64.8702 49.7957 64.6642C50.3017 64.2171 50.7488 63.7288 51.1783 63.2111C51.5548 62.7639 51.8902 62.2815 52.202 61.7873C53.3022 59.7752 53.4904 57.6102 54.9495 55.9393C55.8908 54.8097 57.4381 54.392 58.8148 54.898C60.4033 55.5746 61.5799 56.9454 62.0094 58.6162C62.1565 58.9869 61.6388 59.2869 61.3387 59.1339C60.2209 59.2398 59.1972 59.8046 58.5147 60.693C57.291 62.2462 55.7555 66.3233 52.0843 67.3647C51.6313 67.5529 51.1606 67.6941 50.6664 67.7647C50.4017 67.8059 49.9251 67.8589 49.4839 67.8294C48.4955 67.8765 47.5189 67.6235 46.6893 67.0823C46.4011 66.8705 46.4011 66.2763 46.8482 66.1998Z" fill="#232933"/>
<path d="M69.4279 66.4705C69.7514 66.5646 70.0927 66.3764 70.1868 66.0528C70.3339 65.1585 68.6983 65.3115 69.069 66.1999C69.1513 66.3352 69.2808 66.4293 69.4279 66.4705Z" fill="#232933"/>
<path d="M95.0731 100.776C95.6379 100.923 96.1792 101.158 96.7557 101.24C97.3794 101.329 98.0206 101.27 98.6502 101.264C99.162 101.258 99.7739 101.24 100.25 101.458C100.603 101.623 100.88 101.958 100.768 102.364C100.633 102.847 100.068 102.976 99.6503 103.094C98.4972 103.423 97.297 103.594 96.0968 103.635C95.7262 103.647 95.6791 103.088 96.0556 103.058C97.0205 102.982 97.9618 102.823 98.8973 102.582C99.1149 102.529 99.3326 102.47 99.5503 102.405C99.6327 102.382 100.056 102.299 100.086 102.199C100.139 101.982 99.0443 101.964 98.9149 101.958C97.9971 101.952 97.0734 102.064 96.1733 101.835C95.7144 101.717 95.279 101.535 94.8143 101.423C94.2965 101.299 93.767 101.246 93.2316 101.252C92.7845 101.258 92.7316 100.564 93.1787 100.558C93.8141 100.552 94.4554 100.611 95.0731 100.776Z" fill="#232933"/>
<path d="M93.7259 106.171C94.579 106.259 95.4438 106.247 96.2969 106.1C96.7617 106.024 96.8146 106.759 96.3498 106.83C95.4379 106.977 94.5084 106.989 93.6023 106.824C92.7257 106.665 91.8138 106.436 91.0784 105.906C90.9196 105.794 91.0549 105.512 91.2431 105.559C92.0668 105.783 92.8669 106.077 93.7259 106.171Z" fill="#232933"/>
<path d="M83.4423 138.505C82.9775 137.005 82.5068 135.511 82.0362 134.01C80.5536 129.298 79.0181 124.421 77.6826 119.573C77.5531 119.09 77.8296 118.626 78.3415 118.461C78.7945 118.32 79.3475 118.455 79.5417 118.996C81.6302 124.827 83.5247 130.833 85.3544 136.646L86.4545 140.135C90.4199 152.654 94.3676 165.174 98.3035 177.7C102.234 190.213 106.181 202.957 110.029 215.57C110.205 216.153 109.829 216.653 109.364 216.8C109.27 216.829 109.176 216.847 109.088 216.847C108.74 216.847 108.446 216.629 108.323 216.265C105.981 209.116 103.693 202.121 101.445 195.126C97.5681 183.083 93.5204 170.387 89.4197 157.396C88.7843 155.39 88.1489 153.384 87.5135 151.378C86.1368 147.089 84.7778 142.8 83.4423 138.505Z" fill="white"/>
<path d="M56.4321 118.467C56.8851 118.325 57.4381 118.461 57.6323 119.002C59.7209 124.832 61.6153 130.839 63.445 136.652L64.5451 140.141C68.5105 152.66 72.4582 165.18 76.3941 177.705C80.3241 190.219 84.2718 202.962 88.1195 215.576C88.296 216.159 87.9194 216.659 87.4547 216.806C87.3605 216.835 87.2664 216.853 87.1781 216.853C86.831 216.853 86.5369 216.635 86.4133 216.27C84.0718 209.122 81.7832 202.127 79.5358 195.132C75.6587 183.089 71.611 170.393 67.5103 157.402C66.8749 155.396 66.2395 153.39 65.6041 151.384C64.2451 147.095 62.8802 142.812 61.5506 138.517C61.0858 137.017 60.6151 135.522 60.1444 134.022C58.6619 129.31 57.1263 124.432 55.7908 119.584C55.6437 119.096 55.9202 118.625 56.4321 118.467Z" fill="white"/>
<path d="M44.0474 139.588C44.5122 138.088 44.9829 136.594 45.4535 135.093C46.9361 130.381 48.4717 125.504 49.8072 120.656C49.9366 120.173 49.6601 119.709 49.1482 119.544C48.6952 119.403 48.1422 119.538 47.948 120.079C45.8595 125.91 43.9651 131.916 42.1354 137.729L41.0352 141.218C37.0699 153.737 33.1222 166.257 29.1862 178.783C25.2562 191.296 21.3085 204.04 17.4609 216.653C17.2844 217.236 17.6609 217.736 18.1257 217.883C18.2198 217.912 18.3139 217.93 18.4022 217.93C18.7493 217.93 19.0435 217.712 19.167 217.348C21.5086 210.199 23.7972 203.204 26.0446 196.209C29.9217 184.166 33.9694 171.47 38.07 158.479C38.7054 156.473 39.3408 154.467 39.9762 152.461C41.347 148.166 42.7119 143.883 44.0474 139.588Z" fill="white"/>
<path d="M71.0516 119.544C70.5985 119.403 70.0455 119.538 69.8514 120.079C67.7628 125.91 65.8684 131.916 64.0387 137.729L62.9385 141.218C58.9732 153.737 55.0255 166.257 51.0896 178.783C47.1595 191.296 43.2118 204.04 39.3642 216.653C39.1877 217.236 39.5642 217.736 40.029 217.883C40.1231 217.912 40.2173 217.93 40.3055 217.93C40.6526 217.93 40.9468 217.712 41.0703 217.348C43.4119 210.199 45.7005 203.204 47.9479 196.209C51.825 184.166 55.8727 171.47 59.9733 158.479C60.6087 156.473 61.2441 154.467 61.8795 152.461C63.2386 148.172 64.6035 143.889 65.9331 139.594C66.3979 138.094 66.8685 136.599 67.3392 135.099C68.8218 130.387 70.3573 125.509 71.6928 120.662C71.8458 120.173 71.5693 119.709 71.0516 119.544Z" fill="white"/>
<path d="M81.5356 138.505C81.0708 137.005 80.6001 135.511 80.1294 134.01C78.6469 129.298 77.1113 124.421 75.7758 119.573C75.6464 119.09 75.9229 118.626 76.4347 118.461C76.8878 118.32 77.4408 118.455 77.6349 118.996C79.7235 124.827 81.6179 130.833 83.4476 136.646L84.5478 140.135C88.5131 152.654 92.4608 165.174 96.3967 177.7C100.327 190.213 104.274 202.957 108.122 215.57C108.299 216.153 107.922 216.653 107.457 216.8C107.363 216.829 107.269 216.847 107.181 216.847C106.834 216.847 106.54 216.629 106.416 216.265C104.074 209.116 101.786 202.121 99.5384 195.126C95.6613 183.083 91.6136 170.387 87.513 157.396C86.8776 155.39 86.2422 153.384 85.6068 151.378C84.2301 147.089 82.8711 142.8 81.5356 138.505Z" fill="#F59E0B"/>
<path d="M54.5314 118.467C54.9844 118.325 55.5375 118.461 55.7316 119.002C57.8202 124.832 59.7146 130.839 61.5443 136.652L62.6445 140.141C66.6098 152.66 70.5575 165.18 74.4934 177.705C78.4234 190.219 82.3711 202.962 86.2188 215.576C86.3953 216.159 86.0188 216.659 85.554 216.806C85.4598 216.835 85.3657 216.853 85.2775 216.853C84.9303 216.853 84.6362 216.635 84.5126 216.27C82.1711 209.122 79.8825 202.127 77.6351 195.132C73.758 183.089 69.7103 170.393 65.6096 157.402C64.9742 155.396 64.3389 153.39 63.7035 151.384C62.3444 147.095 60.9795 142.812 59.6499 138.517C59.1851 137.017 58.7144 135.522 58.2438 134.022C56.7612 129.31 55.2256 124.432 53.8901 119.584C53.7372 119.096 54.0137 118.625 54.5314 118.467Z" fill="#F59E0B"/>
<path d="M16.3608 215.67C20.2144 203.033 24.1209 190.408 28.0803 177.806C32.0163 165.28 35.9698 152.761 39.9293 140.241C42.1649 133.181 44.3417 126.086 46.8363 119.114C47.0834 118.432 48.26 118.785 48.06 119.491C46.3126 125.844 44.2594 132.116 42.3002 138.411C40.3411 144.718 38.3231 151.001 36.3346 157.297C32.3575 169.881 28.351 182.459 24.3092 195.026C22.0382 202.08 19.7379 209.122 17.4316 216.165C17.2022 216.888 16.1432 216.382 16.3608 215.67Z" fill="#232933"/>
<path d="M38.2642 215.67C42.1177 203.033 46.0242 190.408 49.9837 177.806C53.9196 165.28 57.8732 152.761 61.8326 140.241C64.0683 133.181 66.2451 126.086 68.7396 119.114C68.9867 118.432 70.1633 118.785 69.9633 119.491C68.216 125.844 66.1627 132.116 64.2036 138.411C62.2444 144.718 60.2265 151.001 58.2379 157.297C54.2608 169.881 50.2543 182.459 46.2125 195.026C43.9415 202.08 41.6412 209.122 39.3349 216.165C39.1055 216.888 38.0465 216.382 38.2642 215.67Z" fill="#232933"/>
<path d="M42.5236 118.061C44.1533 117.726 45.883 117.849 47.5421 117.832C49.1188 117.814 50.6955 117.82 52.2722 117.814C55.5845 117.802 58.8968 117.82 62.2091 117.832C65.4684 117.843 68.7278 117.849 71.9871 117.861C75.217 117.867 78.7117 117.549 81.8593 118.367C82.6005 118.561 82.6123 119.491 81.8651 119.685C78.7646 120.491 75.3288 120.179 72.1518 120.191C68.8395 120.197 65.5273 120.203 62.215 120.22C58.9556 120.232 55.6963 120.25 52.437 120.244C50.8073 120.238 49.1776 120.244 47.5479 120.226C45.8889 120.209 44.1592 120.332 42.5295 119.997C41.447 119.761 41.4234 118.291 42.5236 118.061Z" fill="#F59E0B"/>
<path d="M60.9853 138.458C62.8033 138.123 64.5977 138.147 66.4391 138.117C68.2688 138.088 70.0985 138.064 71.9282 138.035C75.5935 137.982 79.2647 137.988 82.93 138.117C84.2596 138.164 84.289 140.429 82.9359 140.476C79.2706 140.6 75.5994 140.612 71.9341 140.559C70.1574 140.529 68.3806 140.506 66.6039 140.476C64.7095 140.447 62.8562 140.476 60.9912 140.129C60.044 139.959 60.0264 138.641 60.9853 138.458Z" fill="#8B95A5"/>
<path d="M66.6924 157.496C68.5103 157.161 70.3047 157.185 72.1462 157.155C73.9759 157.126 75.8056 157.102 77.6353 157.073C81.3006 157.02 84.9717 157.026 88.637 157.155C89.9666 157.202 89.9961 159.467 88.6429 159.514C84.9776 159.638 81.3064 159.65 77.6412 159.597C75.8644 159.567 74.0876 159.544 72.3109 159.514C70.4165 159.485 68.5632 159.514 66.6982 159.167C65.7569 158.991 65.7393 157.673 66.6924 157.496Z" fill="#8B95A5"/>
<path d="M73.0403 175.899C74.8582 175.564 76.6526 175.587 78.4941 175.558C80.3238 175.529 82.1535 175.505 83.9832 175.476C87.6485 175.423 91.3196 175.429 94.9849 175.558C96.3145 175.605 96.344 177.87 94.9908 177.917C91.3255 178.041 87.6544 178.053 83.9891 178C82.2123 177.97 80.4356 177.947 78.6588 177.917C76.7644 177.888 74.9112 177.917 73.0462 177.57C72.1048 177.394 72.0813 176.076 73.0403 175.899Z" fill="#8B95A5"/>
<path d="M78.747 195.567C80.565 195.232 82.3594 195.255 84.2009 195.226C86.0306 195.197 87.8602 195.173 89.69 195.144C93.3552 195.091 97.0264 195.097 100.692 195.226C102.021 195.273 102.051 197.538 100.698 197.585C97.0323 197.709 93.3611 197.721 89.6958 197.668C87.9191 197.638 86.1423 197.615 84.3656 197.585C82.4712 197.556 80.6179 197.585 78.7529 197.238C77.8116 197.062 77.794 195.744 78.747 195.567Z" fill="#8B95A5"/>
<path d="M40.6762 138.458C42.4942 138.123 44.2886 138.147 46.13 138.117C47.9597 138.088 49.7895 138.064 51.6192 138.035C55.2844 137.982 58.9556 137.988 62.6209 138.117C63.9505 138.164 63.9799 140.429 62.6268 140.476C58.9615 140.6 55.2903 140.612 51.625 140.559C49.8483 140.529 48.0715 140.506 46.2948 140.476C44.4004 140.447 42.5471 140.476 40.6821 140.129C39.7408 139.959 39.7232 138.641 40.6762 138.458Z" fill="#232933"/>
<path d="M34.3344 157.496C36.1524 157.161 37.9468 157.185 39.7883 157.155C41.618 157.126 43.4477 157.102 45.2774 157.073C48.9426 157.02 52.6138 157.026 56.2791 157.155C57.6087 157.202 57.6381 159.467 56.285 159.514C52.6197 159.638 48.9485 159.65 45.2832 159.597C43.5065 159.567 41.7297 159.544 39.953 159.514C38.0586 159.485 36.2053 159.514 34.3403 159.167C33.399 158.991 33.3814 157.673 34.3344 157.496Z" fill="#8B95A5"/>
<path d="M29.2568 175.899C31.0747 175.564 32.8691 175.587 34.7106 175.558C36.5403 175.529 38.37 175.505 40.1997 175.476C43.865 175.423 47.5362 175.429 51.2015 175.558C52.5311 175.605 52.5605 177.87 51.2073 177.917C47.5421 178.041 43.8709 178.053 40.2056 178C38.4289 177.97 36.6521 177.947 34.8753 177.917C32.9809 177.888 31.1277 177.917 29.2627 177.57C28.3214 177.394 28.3037 176.076 29.2568 175.899Z" fill="#8B95A5"/>
<path d="M22.915 195.567C24.733 195.232 26.5274 195.255 28.3688 195.226C30.1985 195.197 32.0282 195.173 33.8579 195.144C37.5232 195.091 41.1944 195.097 44.8597 195.226C46.1893 195.273 46.2187 197.538 44.8656 197.585C41.2003 197.709 37.5291 197.721 33.8638 197.668C32.0871 197.638 30.3103 197.615 28.5336 197.585C26.6391 197.556 24.7859 197.585 22.9209 197.238C21.9737 197.062 21.9561 195.744 22.915 195.567Z" fill="#8B95A5"/>
<path d="M40.5118 112.666C40.4941 112.742 40.4941 112.825 40.5118 112.901C40.5765 113.166 40.8412 113.325 41.106 113.26C41.4766 113.184 41.7002 112.589 41.7767 112.289C42.9298 109.289 43.6064 106.129 43.7829 102.923C43.7829 102.847 43.5593 102.847 43.5593 102.923C42.1532 108.765 40.7589 111.419 40.5118 112.666Z" fill="#232933"/>
<path d="M39.0291 117.196C39.0291 115.966 39.6057 114.813 40.5882 114.072C40.8118 113.925 40.5117 113.554 40.2882 113.701C38.8762 114.59 37.6113 116.078 38.1349 117.867C38.6585 119.602 40.8588 120.473 41.5531 119.426C41.7708 118.99 41.5707 118.89 40.8647 118.773C40.1234 118.643 39.2115 118.667 39.0291 117.196Z" fill="#232933"/>
<path d="M43.0359 119.055C41.4768 119.95 44.6773 120.167 44.0066 118.979C43.8595 118.608 43.2653 118.908 43.0359 119.055Z" fill="#232933"/>
<path d="M45.348 119.055C45.0715 119.102 44.8302 119.267 44.6773 119.502C44.5302 119.726 44.4537 120.02 44.7538 120.173C44.9773 120.32 45.348 120.096 45.5715 119.949L45.648 119.873C45.8657 119.573 45.8657 118.979 45.348 119.055Z" fill="#232933"/>
<path d="M47.2071 119.873C47.5072 119.355 46.9836 118.908 46.5364 119.279C46.3011 119.45 46.1187 119.679 46.0187 119.95C45.7893 120.397 46.2423 120.915 46.76 120.467C46.9071 120.32 47.0542 120.02 47.2071 119.873Z" fill="#232933"/>
<path d="M45.7478 114.867C46.9774 115.861 48.4541 116.437 49.9602 116.873C50.3073 116.973 50.125 117.455 49.8131 117.443C48.1246 117.39 46.5362 116.602 45.2477 115.537C44.8241 115.202 45.3242 114.525 45.7478 114.867Z" fill="#232933"/>
<path d="M68.634 72.7419C67.9692 72.5242 67.5927 72.0006 66.9279 72.5889C66.3336 73.189 65.8394 73.8715 65.457 74.6186C65.6688 74.8481 65.8924 75.0775 66.0924 75.3129C66.3984 74.6422 66.7867 74.0068 67.222 73.4067C68.2869 74.0656 69.64 74.0127 70.6402 73.2596C71.9757 72.3006 72.0522 70.365 72.87 69.1001C73.0053 68.9118 72.9759 68.653 72.7994 68.5C72.1816 67.6763 71.7463 66.7233 71.5345 65.7172C71.4639 65.4584 71.3815 65.323 71.3109 65.276C71.2874 65.2583 71.2638 65.2524 71.2462 65.2524C71.0638 65.2524 70.9285 65.7761 70.9461 65.9702C71.052 66.9056 72.111 68.6883 71.9816 68.8765C71.5756 69.6296 71.2226 70.4297 70.9403 71.2534C70.9403 71.324 70.0519 71.1004 69.1576 69.6884C68.787 69.1001 68.6399 70.1415 69.1576 70.9592C69.5577 71.4005 70.0342 71.7535 70.5696 72.0006C70.1107 72.583 69.3753 72.8654 68.634 72.7419Z" fill="#232933"/>
<path d="M62.9803 69.4707C63.2333 69.5295 62.2508 71.018 61.5977 72.1946C61.8507 72.3064 62.1037 72.4182 62.3449 72.5359C62.3743 72.5476 62.4037 72.5653 62.4273 72.5771C63.0097 71.6946 63.451 70.7179 63.7216 69.6942C64.0158 69.7707 66.8397 70.0708 65.8808 68.9588C65.6513 68.6588 65.2101 68.7353 64.91 68.7353C63.0568 68.5882 63.7216 64.1287 66.8397 67.0997C67.2633 66.1525 67.5693 65.1524 67.734 64.1287C68.7224 64.4052 69.7637 64.4522 70.7815 64.2757C70.8816 64.2699 70.9757 64.264 71.0757 64.2463C71.0875 64.2463 71.0934 64.2463 71.1051 64.2404C71.6464 64.1698 72.17 63.9757 72.6407 63.6756C72.8819 63.4815 73.0819 63.2403 73.2349 62.9638C73.8997 61.7695 73.4702 60.2575 72.2759 59.5868C71.264 58.9102 70.052 58.6278 68.8518 58.769C68.2047 58.3983 67.4987 58.1512 66.7691 58.0277C61.9331 56.9099 57.55 62.4872 59.9269 66.9526C60.5976 68.1411 61.6801 69.0412 62.9803 69.4707Z" fill="#232933"/>
<path d="M81.0301 92.4862C79.0533 91.1389 77.0412 89.8446 75.1409 88.3797C73.1347 86.8324 71.2403 85.1556 69.3989 83.4142C68.4222 82.4905 67.3515 81.5315 66.1336 80.9314C66.1395 80.8667 66.1631 80.7961 66.1866 80.7373C65.1982 80.3313 64.1922 79.9548 63.1332 79.7724C61.5094 79.4841 59.8915 79.8313 58.4971 80.6961C57.3264 81.4256 56.4203 82.6435 56.0556 83.9672C55.6555 85.4498 56.1321 86.7676 57.0734 87.9384C58.1088 89.2269 59.4855 90.3035 60.9975 90.9742C61.4035 91.1566 61.0505 91.7626 60.6387 91.5861C59.1619 90.9212 57.797 89.874 56.7498 88.6444C55.732 87.456 55.026 86.0852 55.2378 84.4849C55.6732 81.1962 58.9325 78.8723 62.1448 78.9723C63.5156 79.0135 64.8099 79.443 66.0807 79.9489C66.0866 79.8018 66.0983 79.6665 66.1278 79.5253C66.1513 79.4547 66.1866 79.3782 66.216 79.3194C66.2395 79.2723 66.2748 79.2311 66.3043 79.19C66.3337 79.1664 66.3631 79.137 66.3984 79.1253C66.4396 79.1017 66.4808 79.0782 66.5219 79.0664C66.822 78.9664 67.0279 78.7075 67.0102 78.384C66.5043 77.5368 65.9807 76.6955 65.3747 75.9247C65.0982 75.5776 64.804 75.2423 64.4922 74.9305C64.3863 74.8246 64.2804 74.7187 64.1686 74.6187C63.545 74.0539 62.8625 73.5714 62.1036 73.2126C62.0918 73.2008 62.0742 73.1949 62.0565 73.1831C62.0389 73.1773 62.0212 73.1655 62.0036 73.1596C61.4152 72.8772 60.821 72.636 60.2621 72.2889H60.2562C59.815 72.1594 59.3502 72.0653 58.8913 72.0065C58.7384 71.9359 58.5148 72.0065 58.5148 72.1594C58.1265 74.2892 55.532 76.9308 53.0845 80.3254C52.9786 80.4961 52.8786 80.6549 52.7786 80.8255C52.2256 81.9022 51.5902 82.9376 50.8959 83.9319C50.89 83.9437 50.8842 83.9672 50.8724 83.979C50.7488 84.2143 50.6194 84.4437 50.4959 84.6791C50.1546 85.438 49.7663 86.1852 49.3722 86.9147C49.3545 86.95 49.3369 86.9736 49.3192 86.9853C47.1542 92.1214 45.295 99.7226 44.3125 112.454C44.3125 112.466 44.3184 112.472 44.3184 112.483C44.3125 112.507 44.3125 112.525 44.3067 112.536C44.2478 112.86 44.3008 113.195 44.4067 113.501C44.4655 113.654 44.5538 113.801 44.6479 113.931C44.6773 113.96 44.7008 113.978 44.7185 114.001C44.8714 114.207 45.0774 114.348 45.3303 114.413C45.3892 114.449 45.4539 114.49 45.5304 114.519C45.7128 114.578 45.901 114.649 46.0952 114.66C46.254 114.672 46.4187 114.649 46.5658 114.59C47.4601 114.554 48.3367 114.39 49.1898 114.101V114.113C49.2133 114.101 49.2486 114.084 49.2721 114.072C49.3369 114.048 49.4192 114.025 49.4839 114.007V113.972C54.7318 111.536 62.0801 106.165 67.9692 107.471C68.0222 107.483 68.0869 107.489 68.1398 107.489C68.4222 107.477 68.6458 107.236 68.634 106.953C68.634 105.382 68.5223 99.0872 68.3928 96.4751C68.4575 96.0397 68.534 95.6102 68.6164 95.1807C67.9692 94.7866 67.2691 94.4865 66.6455 94.0688C66.4808 93.9629 66.416 93.7629 66.5161 93.5864C66.6043 93.4275 66.8396 93.3569 66.9985 93.4628C67.5633 93.8335 68.181 94.1159 68.7635 94.4453C68.7635 94.4277 68.7694 94.41 68.7694 94.3983C69.0518 94.5453 69.34 94.6924 69.6283 94.8395C69.6342 94.8454 69.6401 94.8513 69.646 94.8513C69.8872 95.0042 70.1343 95.1454 70.3755 95.2925C71.911 96.1985 73.4642 97.0928 75.0174 97.9635C76.5647 98.8343 78.112 99.6991 79.677 100.54C80.0653 100.752 80.4594 100.964 80.8536 101.17C80.8477 101.188 80.8419 101.205 80.836 101.229C83.254 102.564 85.7779 103.7 88.3842 104.606C88.4254 104.676 88.4431 104.741 88.4725 104.8C88.6196 104.747 88.7608 104.706 88.9078 104.659C89.2314 104.512 89.5491 104.359 89.8609 104.165C90.361 103.817 90.8023 103.4 91.1788 102.917C91.4612 102.423 91.7142 101.917 91.9436 101.399C91.973 101.193 91.9789 100.993 91.9554 100.782C91.9318 100.458 91.8612 100.164 91.7906 99.8638C91.0611 99.3696 88.8137 98.0753 85.8309 95.7573" fill="#8B5CF6"/>
<path d="M66.4984 138.064C66.569 138.099 66.6573 138.117 66.7455 138.135C66.8338 138.152 66.9044 138.17 66.9926 138.188C67.0103 138.188 67.0103 138.188 67.0279 138.188C67.0632 138.188 67.1162 138.188 67.1515 138.205C67.2397 138.205 67.328 138.205 67.3986 138.205C68.0516 136.881 69.6754 136.034 70.9991 135.311C71.9699 136.458 73.1877 137.376 74.5467 138.011C74.582 138.011 74.6173 137.993 74.635 137.993C75.0586 138.029 75.4645 137.993 75.8881 137.958C75.4998 137.429 73.929 136.934 73.4171 136.423C72.7641 135.964 72.164 135.434 71.6345 134.852C70.7873 133.74 68.2281 135.964 67.5045 136.617C67.0279 137.005 66.6573 137.482 66.4102 138.029C66.4278 138.029 66.4455 138.046 66.4631 138.046C66.4631 138.064 66.4808 138.064 66.4984 138.064Z" fill="#232933"/>
<path d="M78.306 146.642C77.7412 144.612 77.1764 142.565 76.6116 140.518C76.5057 140.553 76.3998 140.553 76.2939 140.535C76.0997 140.5 75.8879 140.465 75.6938 140.429C77.5647 146.889 77.9177 147.701 77.7235 148.531C77.6 148.919 77.3352 149.378 76.9293 149.448C76.3468 149.537 75.8879 149.007 75.5702 148.619C75.3055 148.231 74.9701 147.895 74.723 147.507C72.9051 145.089 71.3872 142.618 68.7044 140.959C68.4044 140.782 68.069 140.623 67.7866 140.412H66.3394C66.71 141.029 67.3807 141.382 68.0337 141.806C70.9283 143.43 73.011 147.119 74.9878 149.342C75.782 150.19 76.894 150.79 77.8824 149.925C78.8354 149.078 78.6413 147.754 78.306 146.642Z" fill="#232933"/>
<path d="M79.5239 140.376C79.2415 140.676 78.9944 141.011 78.8532 141.4C78.6591 141.982 78.7826 142.512 79.4357 141.982C79.7004 141.717 79.8946 141.188 80.1593 140.941C80.3535 140.729 80.5829 140.517 80.83 140.358C80.3888 140.376 79.9475 140.394 79.5239 140.376Z" fill="#232933"/>
<path d="M84.8014 148.76C82.9835 147.365 81.2714 145.989 80.283 145.865C79.5594 145.742 79.1711 146.059 79.8947 146.518C81.2714 147.436 82.6481 148.283 83.8836 149.272C84.3602 149.678 84.872 150.048 85.3839 150.419C85.1721 149.854 84.9603 149.307 84.8014 148.76Z" fill="#232933"/>
<path d="M91.0138 149.466C89.1782 147.066 87.7485 144.383 86.7601 141.524C86.6543 141.259 85.3305 140.835 84.6245 140.588C84.7128 140.906 84.801 141.241 84.8893 141.559C85.4011 141.718 85.913 141.842 86.4425 141.912C87.0425 144.383 88.1015 146.713 89.5841 148.796C89.8489 149.184 91.808 151.355 91.0314 151.69C90.2725 152.008 89.2311 151.672 88.1015 151.037C88.2074 151.408 88.3133 151.778 88.4016 152.149C89.5488 152.608 91.508 153.137 92.0198 151.831C92.3375 150.914 91.4727 150.119 91.0138 149.466Z" fill="#232933"/>
<path d="M84.0954 115.455C83.9895 115.561 83.8836 115.666 83.76 115.772C83.4423 115.966 83.1246 116.178 82.8422 116.408C82.5069 116.708 82.1715 117.008 81.8538 117.343C81.7832 117.396 81.7126 117.449 81.642 117.502C81.3949 117.714 81.1655 117.943 80.936 118.19C81.1831 118.226 81.4126 118.243 81.6597 118.314C81.7832 118.349 81.9068 118.385 82.0303 118.437C82.1362 118.314 82.2421 118.19 82.3304 118.067V118.084C83.0011 117.308 83.6894 116.531 84.4131 115.772C84.6778 115.596 84.3601 115.26 84.0954 115.455Z" fill="#232933"/>
<path d="M78.765 122.338C79.1356 121.967 79.471 121.561 79.8063 121.173C80.1593 120.767 80.5476 120.361 80.8653 119.938C80.6359 119.99 80.4064 120.026 80.177 120.043C79.8769 120.079 79.5769 120.079 79.2592 120.043C79.118 120.185 78.9944 120.343 78.8532 120.502C78.6944 120.696 78.5002 120.891 78.3237 121.102C78.5002 121.508 78.6414 121.932 78.765 122.338Z" fill="#232933"/>
<path d="M80.0709 133.757C80.0532 133.74 80.0532 133.704 80.0356 133.687C79.0649 134.499 78.0588 135.293 77.0175 136.034C77.0704 135.981 76.9116 135.681 76.8233 135.487C76.6645 135.152 76.435 135.081 76.2585 135.152C76.0291 135.24 76.1703 135.364 75.8526 135.311C75.429 135.24 75.6231 134.446 75.3231 134.199C74.9348 133.863 74.5288 134.128 74.0699 134.199C73.8758 133.863 73.8758 133.475 73.4169 133.352C73.1521 133.281 73.5404 132.628 73.611 132.434C74.6171 129.804 75.8879 127.298 77.3528 124.915C77.1763 124.385 77.0351 123.838 76.8939 123.273C76.3115 124.156 75.7467 125.038 75.2348 125.956C74.2994 127.509 73.5051 129.168 72.8697 130.881C72.7462 131.269 71.3695 134.216 72.4109 134.093C72.7109 134.093 72.9933 133.51 73.1521 134.11C73.2227 134.393 73.311 134.658 73.664 134.746C73.7346 134.746 74.6524 134.675 74.6524 134.552V134.746C74.7053 135.187 75.0054 135.558 75.4466 135.664C75.6408 135.734 76.1703 135.664 76.2409 135.928C76.2938 136.052 76.3115 136.193 76.3115 136.317C76.3115 136.652 76.841 137.04 77.1587 136.776C78.253 136.017 79.2943 135.205 80.318 134.358C80.2297 134.146 80.1415 133.952 80.0709 133.757Z" fill="#232933"/>
<path d="M92.2141 122.338C92.1435 122.338 92.1435 122.338 92.1435 122.409C90.1844 127.721 88.3488 133.087 86.0543 138.258C85.9308 137.994 85.666 137.605 85.2601 137.676C84.9953 137.746 84.8012 138.011 84.607 138.064C84.5364 138.135 84.5364 138.064 84.4835 137.941C84.2893 137.499 84.1658 136.935 83.6187 136.846C83.7775 137.393 83.9187 137.941 84.0776 138.488C84.307 138.805 84.607 138.964 85.0836 138.594C85.1365 138.541 85.2071 138.329 85.4366 138.858C85.7543 139.6 86.1779 140.094 86.6544 139.441C86.7603 139.282 86.8486 139.106 86.9192 138.911C87.6958 136.74 88.4547 135.452 89.9373 131.181C90.961 128.357 91.7552 125.48 92.3553 122.532C92.3377 122.479 92.2847 122.285 92.2141 122.338Z" fill="#232933"/>
<path d="M89.3371 110.354C87.2367 109.471 85.0482 108.871 82.789 108.589C78.8531 107.865 74.8642 107.371 70.8577 107.142C70.7518 107.142 70.6635 107.212 70.6282 107.318C70.5929 107.442 70.6635 107.565 70.7871 107.6C73.3463 108.183 76.0997 108.324 78.7119 108.712C81.5535 109.136 84.3422 109.736 87.0955 110.548C89.2488 111.201 92.0728 112.26 92.8671 114.607C93.5201 116.567 92.6023 118.543 91.6316 120.167C89.0194 124.527 85.8071 128.463 82.083 131.887C82.1536 132.116 82.2242 132.363 82.2948 132.593C82.3124 132.663 82.3301 132.716 82.3654 132.787C85.3129 130.051 87.9957 127.033 90.3255 123.768C91.4904 122.197 92.4964 120.503 93.3436 118.72C95.0027 114.625 93.273 112.066 89.3371 110.354Z" fill="#232933"/>
<path d="M78.8529 122.603C79.4177 121.791 80.0002 121.014 80.6003 120.238C79.9825 120.467 79.3648 120.608 78.7117 120.714C78.6058 120.856 78.4999 121.014 78.394 121.156C78.5529 121.632 78.6941 122.126 78.8529 122.603Z" fill="#232933"/>
<path d="M124.319 64.6231L129.832 64.6702C129.585 64.223 129.326 63.7877 129.079 63.3406L123.537 63.2876C123.648 63.4641 123.76 63.6347 123.86 63.8112C124.007 64.0818 124.16 64.3525 124.319 64.6231Z" fill="#8B95A5"/>
<path d="M132.879 64.6939L138.192 64.7351C137.98 64.2997 137.768 63.8585 137.562 63.4172L132.203 63.3643C132.338 63.6055 132.473 63.8467 132.597 64.0938C132.697 64.2879 132.791 64.4938 132.879 64.6939Z" fill="#8B95A5"/>
<path d="M145.51 64.7936C145.234 64.3523 144.957 63.917 144.675 63.4875L140.58 63.4463C140.798 63.8875 141.021 64.3288 141.257 64.7583L145.51 64.7936Z" fill="#8B95A5"/>
<path d="M116.194 68.4001H117.741L117.43 67.8059C116.912 66.8116 116.824 65.8997 117.194 65.3114C117.577 64.6995 118.33 64.576 118.895 64.5818L121.177 64.5995C120.895 64.1406 120.595 63.6993 120.307 63.2522L118.859 63.2404C117.565 63.2287 116.553 63.7052 116 64.5877C115.382 65.582 115.447 66.9704 116.194 68.3942V68.4001Z" fill="#8B95A5"/>
<path d="M125.649 83.514L122.907 78.2661H121.354L124.096 83.514H125.649Z" fill="#8B95A5"/>
<path d="M133.926 90.739H133.426C131.267 90.7332 128.437 88.8387 127.266 86.6031L127.066 86.2266H125.513L126.037 87.2326C127.472 89.9742 130.732 92.1275 133.444 92.1275H134.944C134.597 91.6745 134.256 91.2097 133.926 90.739Z" fill="#8B95A5"/>
<path d="M142.598 90.7564L137.309 90.7446C137.444 90.9094 137.574 91.0682 137.709 91.2271C137.98 91.5389 138.262 91.833 138.55 92.1272H143.528C143.21 91.6742 142.898 91.2212 142.598 90.7564Z" fill="#8B95A5"/>
<path d="M153.024 91.9918C152.753 91.58 152.477 91.1682 152.188 90.7681L145.881 90.7563C146.217 91.2152 146.558 91.6683 146.893 92.1213H153.1C153.077 92.0801 153.047 92.0389 153.024 91.9918Z" fill="#8B95A5"/>
<path d="M161.925 91.78C161.701 91.4446 161.478 91.1152 161.248 90.7857L155.453 90.7739C155.747 91.2211 156.036 91.6741 156.324 92.1271H162.154C162.072 92.0094 161.995 91.8976 161.925 91.78Z" fill="#8B95A5"/>
<path d="M149.905 64.829C149.935 64.829 149.97 64.829 149.999 64.829C151.852 64.8938 154.223 66.3234 155.541 68.1119H157.018L157.012 68.1001C155.571 65.6056 152.5 63.6288 149.958 63.5406C149.917 63.5406 149.87 63.5406 149.829 63.5406L147.905 63.5229C148.175 63.9583 148.44 64.3878 148.711 64.8232L149.905 64.829Z" fill="#8B95A5"/>
<path d="M161.301 75.4955L158.595 70.8242H157.165L159.871 75.4955H161.301Z" fill="#8B95A5"/>
<path d="M165.814 83.2848L162.872 78.2075H161.442L164.378 83.2848H165.814Z" fill="#8B95A5"/>
<path d="M167.385 85.9971H165.949L166.72 87.3267C167.332 88.3857 167.497 89.3564 167.173 89.9918C166.908 90.5095 166.308 90.7919 165.479 90.7919H164.514C164.808 91.2332 165.096 91.6803 165.384 92.1275H165.537C166.838 92.1275 167.814 91.6097 168.291 90.6684C168.826 89.6153 168.644 88.168 167.785 86.6913L167.385 85.9971Z" fill="#8B95A5"/>
<path d="M121.483 75.5542L119.159 71.1123H117.612L119.936 75.5542H121.483Z" fill="#8B95A5"/>
<path d="M219.134 90.5506L211.139 72.283C210.009 69.7061 206.997 67.6822 204.285 67.6822L171.985 67.6528H171.98C170.597 67.6528 169.485 68.1764 168.856 69.1295C168.197 70.1179 168.15 71.4181 168.72 72.7772L176.41 91.0683C177.516 93.6981 180.54 95.7632 183.287 95.7632H196.925C196.972 95.316 197.054 94.8689 197.16 94.4218H183.287C181.11 94.4218 178.528 92.6509 177.645 90.5506L169.956 72.2594C169.561 71.324 169.567 70.4768 169.967 69.8708C170.344 69.3001 171.056 68.9883 171.974 68.9883H171.98L204.279 69.0177C206.426 69.0177 209.003 70.7592 209.903 72.8184L217.899 91.0859C218.322 92.0508 218.334 92.9274 217.928 93.5452C217.557 94.11 216.851 94.4218 215.939 94.4218H202.243C202.261 94.8689 202.273 95.316 202.302 95.7632H215.939C217.322 95.7632 218.428 95.2337 219.052 94.2806C219.711 93.2863 219.734 91.9273 219.134 90.5506Z" fill="#A78BFA"/>
<path d="M199.772 73.4657C197.942 73.2362 196.113 73.2656 194.277 73.2715C192.447 73.2774 190.618 73.2833 188.788 73.3009C185.093 73.3362 181.399 73.4304 177.704 73.4774C177.292 73.4833 177.28 74.3482 177.704 74.354C181.399 74.4011 185.093 74.4952 188.788 74.5305C190.588 74.5482 192.389 74.5541 194.183 74.5599C196.054 74.5658 197.913 74.6011 199.772 74.3658C200.19 74.307 200.196 73.5186 199.772 73.4657Z" fill="#A78BFA"/>
<path d="M201.843 77.8959C194.266 77.5723 186.658 77.69 179.075 77.8841C178.616 77.8959 178.61 78.8431 179.075 78.8548C186.658 79.049 194.266 79.1666 201.843 78.8431C202.29 78.8195 202.296 77.9135 201.843 77.8959Z" fill="#A78BFA"/>
<path d="M210.156 82.9728C200.507 82.7081 190.835 82.8022 181.187 82.9611C180.634 82.9728 180.622 84.0024 181.187 84.0083C190.835 84.1671 200.507 84.2613 210.156 83.9965C210.691 83.9789 210.703 82.9846 210.156 82.9728Z" fill="#A78BFA"/>
<path d="M212.303 87.8562C209.891 87.615 207.432 87.715 205.014 87.6797C202.578 87.6444 200.149 87.615 197.713 87.5856C192.889 87.5267 188.017 87.4444 183.205 87.7679C182.681 87.8032 182.669 88.7269 183.205 88.7622C188.023 89.0858 192.895 88.9976 197.713 88.9446C200.149 88.9152 202.584 88.8858 205.014 88.8505C207.432 88.8152 209.897 88.9152 212.309 88.674C212.733 88.6387 212.745 87.9033 212.303 87.8562Z" fill="#A78BFA"/>
</svg>
