<svg width="288" height="240" viewBox="0 0 288 240" fill="none" xmlns="http://www.w3.org/2000/svg">
<path d="M224.802 78.5617C223.915 77.8378 222.182 77.7257 221.667 78.7503C221.642 78.7962 219.883 81.0086 222.182 82.3443C223.227 82.905 224.532 82.6144 225.236 81.6612C225.893 80.6722 225.71 79.3417 224.802 78.5617Z" fill="#CC5858"/>
<path d="M57.6296 66.1241C57.9508 64.6865 57.6959 63.2795 57.7877 62C56.5591 62.6831 55.2999 63.3101 54 63.8862C55.2592 64.554 56.4673 65.3034 57.6296 66.1241Z" fill="#53A5A8"/>
<path d="M14.0836 73.136C13.6758 74.2779 14.8381 75.4045 15.8679 75.5829C17.0607 75.7613 18.1874 74.9814 18.4371 73.7987C18.7481 72.6721 18.1262 71.4996 17.0149 71.1274C16.0973 70.8216 14.5271 71.0255 14.3844 72.1878C14.3844 72.3509 14.5119 72.4784 14.675 72.4784C14.7005 72.4784 14.7209 72.4733 14.7514 72.4733C15.3428 72.2897 15.771 71.9023 16.4337 72.045C17.9987 72.3917 17.4635 74.6551 16.1482 74.5735C15.2918 74.5328 14.8228 73.8191 14.5475 73.1105C14.5017 72.983 14.3589 72.9219 14.2264 72.9728C14.1601 72.9983 14.104 73.0595 14.0836 73.136Z" fill="#CC5858"/>
<path d="M146.657 29.5765C146.978 28.1389 146.723 26.7319 146.815 25.4524C145.586 26.1355 144.327 26.7625 143.027 27.3386C144.286 28.0115 145.5 28.7558 146.657 29.5765Z" fill="#53A5A8"/>
<path d="M46.6741 36.3054C46.2663 37.4473 47.4286 38.5739 48.4583 38.7523C49.6512 38.9308 50.7778 38.1508 51.0276 36.9681C51.3386 35.8415 50.7166 34.669 49.6053 34.2969C48.6877 33.991 47.1176 34.1949 46.9749 35.3572C46.9749 35.5203 47.1023 35.6478 47.2654 35.6478C47.2909 35.6478 47.3113 35.6427 47.3419 35.6427C47.9332 35.4592 48.3615 35.0717 49.0242 35.2145C50.5892 35.5611 50.0539 37.8245 48.7387 37.743C47.8823 37.7022 47.4133 36.9885 47.138 36.2799C47.0921 36.1525 46.9494 36.0913 46.8168 36.1423C46.7506 36.1678 46.6945 36.2289 46.6741 36.3054Z" fill="#BA8C42"/>
<path d="M65.3371 138.317C64.9038 137.925 64.3991 137.604 63.8537 137.379C64.4093 136.757 64.8987 136.074 65.3167 135.356C65.4238 135.147 65.1893 134.876 64.965 135.004C64.2207 135.544 63.5784 136.227 63.0788 136.997C62.3855 136.65 61.6718 136.345 60.9683 136.018C60.846 135.952 60.6981 135.998 60.6268 136.12C60.5656 136.237 60.6013 136.37 60.7083 136.446C61.3455 136.854 61.9828 137.247 62.6353 137.634C62.2428 138.215 61.9216 138.848 61.6871 139.515C61.6208 139.74 61.9267 139.928 62.0745 139.755C62.5282 139.215 62.9208 138.623 63.3388 138.052C63.8537 138.404 64.4297 138.669 65.0363 138.827C65.2046 138.868 65.3779 138.761 65.4187 138.588C65.4391 138.501 65.4136 138.394 65.3371 138.317Z" fill="#F4B94B"/>
<path d="M251.63 46.1241C251.951 44.6865 251.696 43.2795 251.788 42C250.559 42.6831 249.3 43.3101 248 43.8862C249.264 44.554 250.472 45.3034 251.63 46.1241Z" fill="#53A5A8"/>
<path d="M97.8997 30.5717C97.2148 30.9957 96.5072 31.3738 95.7752 31.713C95.024 31.9739 94.2914 32.2834 93.5745 32.6372C93.4434 32.7256 93.413 32.9072 93.5056 33.0356C93.556 33.1063 93.6394 33.1623 93.7355 33.1621C95.3546 33.2291 97.0725 31.9578 98.1511 30.8954C98.3366 30.7308 98.0924 30.4568 97.8997 30.5717Z" fill="#CC5858"/>
<path d="M94.3195 34.9262C95.2459 34.7719 96.1385 34.4583 96.9589 33.9914C97.6023 33.6356 98.7901 33.1306 98.9722 32.3662C99.0006 32.258 98.9372 32.1474 98.8247 32.1217C98.8037 32.1169 98.7896 32.1136 98.7642 32.1115C98.0554 32.1713 97.4322 32.9237 96.8559 33.3096C96.0622 33.8862 95.1759 34.3344 94.2346 34.6184C94.0644 34.6349 94.1207 34.9547 94.3195 34.9262Z" fill="#CC5858"/>
<path d="M201.084 50.136C200.676 51.2779 201.838 52.4045 202.868 52.5829C204.061 52.7613 205.187 51.9814 205.437 50.7987C205.748 49.6721 205.126 48.4996 204.015 48.1274C203.097 47.8216 201.527 48.0255 201.384 49.1878C201.384 49.3509 201.512 49.4784 201.675 49.4784C201.7 49.4784 201.721 49.4733 201.751 49.4733C202.343 49.2897 202.771 48.9023 203.434 49.045C204.999 49.3917 204.463 51.6551 203.148 51.5735C202.292 51.5328 201.823 50.8191 201.548 50.1105C201.502 49.983 201.359 49.9219 201.226 49.9728C201.165 50.0085 201.104 50.0697 201.084 50.136Z" fill="#183D6A"/>
<path d="M200.036 17.8669C199.603 17.4744 199.098 17.1532 198.552 16.9289C199.108 16.307 199.597 15.6239 200.015 14.9051C200.123 14.6961 199.888 14.4259 199.664 14.5534C198.919 15.0937 198.277 15.7768 197.778 16.5466C197.084 16.1999 196.371 15.8941 195.667 15.5678C195.545 15.5015 195.397 15.5474 195.326 15.6698C195.264 15.787 195.3 15.9196 195.407 15.996C196.044 16.4039 196.682 16.7964 197.334 17.1838C196.942 17.765 196.62 18.3971 196.386 19.0649C196.32 19.2892 196.625 19.4778 196.773 19.3045C197.227 18.7641 197.62 18.1728 198.038 17.6018C198.552 17.9536 199.128 18.2187 199.735 18.3767C199.903 18.4175 200.077 18.3104 200.117 18.1371C200.138 18.0504 200.112 17.9434 200.036 17.8669Z" fill="#CC5858"/>
<path d="M265.684 74.2146C264.891 74.3558 264.094 74.4459 263.288 74.491C262.494 74.4562 261.699 74.4733 260.902 74.5375C260.748 74.5712 260.652 74.7287 260.691 74.8823C260.712 74.9666 260.769 75.0494 260.858 75.0848C262.338 75.7447 264.404 75.1975 265.798 74.6083C266.032 74.5238 265.906 74.1789 265.684 74.2146Z" fill="#53A5A8"/>
<path d="M260.745 76.9409C261.663 77.1395 262.608 77.1776 263.543 77.0465C264.272 76.9533 265.562 76.9225 266.014 76.2793C266.08 76.1893 266.062 76.0631 265.967 75.9977C265.949 75.9854 265.937 75.9772 265.914 75.9659C265.234 75.7598 264.377 76.229 263.699 76.3749C262.748 76.6177 261.759 76.707 260.779 76.6234C260.615 76.576 260.549 76.894 260.745 76.9409Z" fill="#53A5A8"/>
<path d="M47.5203 100.619C47.1125 101.761 48.2748 102.888 49.3046 103.066C50.4974 103.244 51.6241 102.465 51.8739 101.282C52.1848 100.155 51.5629 98.9827 50.4516 98.6106C49.534 98.3047 47.9638 98.5086 47.8211 99.6709C47.8211 99.8341 47.9486 99.9615 48.1117 99.9615C48.1372 99.9615 48.1576 99.9564 48.1882 99.9564C48.7795 99.7729 49.2077 99.3855 49.8704 99.5282C51.4354 99.8748 50.9002 102.138 49.5849 102.057C48.7285 102.016 48.2595 101.302 47.9842 100.594C47.9384 100.466 47.7956 100.405 47.6631 100.456C47.6019 100.492 47.5407 100.553 47.5203 100.619Z" fill="#183D6A"/>
<path d="M123.538 70.5773C122.127 66.3686 116.909 63.8782 112.097 62.7993C106.72 61.6002 101.038 61.7531 95.7652 63.2389C77.4901 68.5359 79.1247 87.8598 89.5922 101.499C88.9152 102.879 86.1312 109.778 86.4316 110.719C86.4746 110.852 86.5583 110.974 86.6744 111.072C86.7906 111.17 86.9353 111.242 87.0944 111.28C87.2536 111.318 87.4218 111.32 87.5827 111.288C87.7436 111.256 87.8917 111.189 88.0126 111.095C88.3976 110.773 91.5666 101.038 91.5497 100.997C89.7995 96.7778 86.8956 92.9652 85.6038 88.5779C82.9622 79.6458 84.3345 70.0614 94.3351 65.9984C102.916 62.5114 116.854 63.5868 122.333 71.078C122.563 71.7056 123.767 71.266 123.538 70.5773Z" fill="#163C69"/>
<path d="M172.384 156.882C173.09 157.301 182.918 162.712 183.374 162.965C185.706 162.338 194.212 159.955 196.168 159.39C192.48 157.446 188.867 155.438 185.406 153.369C183.472 153.868 173.738 156.454 172.384 156.882Z" fill="#38A1FF"/>
<path d="M179.007 164.157C179.831 163.956 180.588 163.718 181.416 163.467C178.632 162.025 171.18 157.943 170.201 157.446C168.094 158.01 157.407 160.895 156.955 161.021C160.567 163.341 164.18 165.722 167.266 167.732C167.341 167.606 175.147 165.1 179.007 164.157Z" fill="#38A1FF"/>
<path d="M219.501 159.453C212.197 156.409 212.167 156.144 211.974 156.254C211.523 156.442 200.832 159.515 200.233 159.703C200.684 159.955 211.673 164.972 211.748 165.034C214.604 164.27 217.395 163.348 220.103 162.275C222.642 160.993 220.027 159.641 219.501 159.453Z" fill="#F4B94B"/>
<path d="M157.858 159.453C160.845 158.525 166.13 157.209 168.545 156.442C168.404 156.361 156.865 149.85 156.428 149.668C152.289 150.671 148.074 151.675 143.934 152.428C146.719 154.247 151.009 157.006 155.6 160.017C156.369 159.879 157.124 159.69 157.858 159.453V159.453Z" fill="#38A1FF"/>
<path d="M183.223 164.408C181.944 164.721 172.459 167.669 168.545 168.484C172.31 170.931 174.483 172.383 175.245 172.875C177.306 174.206 190.899 170.759 193.759 170.054C192.029 169.237 183.298 164.47 183.223 164.408Z" fill="#38A1FF"/>
<path d="M175.47 144.964C178.855 147.348 182.32 149.548 185.857 151.739C189.469 150.735 193.082 149.731 196.696 148.79C194.136 147.348 189.394 144.839 184.953 142.519L175.47 144.964Z" fill="#38A1FF"/>
<path d="M174.04 143.96C177.126 143.145 180.137 142.393 183.223 141.577C178.851 139.382 175.019 137.626 174.266 137.751C173.688 137.931 169.861 138.485 167.115 138.943C169.373 140.637 171.707 142.329 174.04 143.96Z" fill="#38A1FF"/>
<path d="M198.05 160.268C195.641 160.957 187.062 163.341 185.179 163.843C186.609 164.658 195.192 169.425 195.266 169.613C200.157 168.359 205.125 166.98 209.416 165.724C207.985 165.16 198.652 160.581 198.05 160.268Z" fill="#38A1FF"/>
<path d="M187.438 152.741C189.21 153.747 191.396 155.133 198.353 158.7C200.26 158.132 206.56 156.335 209.943 155.25C205.201 153.118 200.385 150.923 198.579 149.794C198.28 149.547 199.436 149.476 187.438 152.741Z" fill="#38A1FF"/>
<path d="M152.514 113.29C160.071 111.818 158.809 100.696 155.223 97.7978C155.125 97.7194 154.998 97.6697 154.863 97.656C154.728 97.6422 154.591 97.6653 154.472 97.7217C154.354 97.778 154.261 97.8647 154.206 97.9689C154.152 98.073 154.139 98.189 154.17 98.2996C155.157 101.921 157.323 106.011 154.998 109.652C154.267 110.709 153.199 111.578 151.912 112.161C151.31 112.6 151.757 113.478 152.514 113.29Z" fill="#163C69"/>
<path d="M151.461 107.52C152.138 105.764 152.665 101.31 150.407 100.056C150.306 100.004 150.189 99.9764 150.07 99.9766C149.951 99.9767 149.834 100.004 149.733 100.056C149.632 100.108 149.55 100.182 149.496 100.271C149.442 100.359 149.419 100.459 149.428 100.557C149.162 102.438 151.156 102.987 150.031 107.206C149.654 107.958 151.084 108.267 151.461 107.52Z" fill="#163C69"/>
<path d="M145.817 107.457C146.145 106.023 146.042 101.95 144.461 101.687C144.29 101.651 144.11 101.661 143.947 101.718C143.784 101.774 143.648 101.873 143.559 102C142.808 103.042 144.642 104.456 144.236 107.332C144.159 107.646 144.612 107.958 144.912 107.958C145.108 107.968 145.302 107.924 145.465 107.833C145.628 107.743 145.751 107.611 145.817 107.457V107.457Z" fill="#163C69"/>
<path d="M142.052 109.464C142.429 107.583 142.432 104.572 139.268 104.509C139.126 104.499 138.983 104.519 138.852 104.566C138.721 104.613 138.606 104.686 138.517 104.779C138.428 104.872 138.367 104.982 138.341 105.098C138.314 105.215 138.322 105.336 138.364 105.449C138.603 106.01 139.274 106.067 139.794 106.327C141.013 106.935 140.622 108.271 140.471 109.275C140.333 109.881 141.885 110.312 142.052 109.464Z" fill="#163C69"/>
<path d="M117.892 82.2431C117.892 81.3029 116.482 79.7163 114.957 79.8597C113.074 80.036 113.026 82.3595 113.602 83.4972C114.076 84.4374 115.559 85.8806 116.915 85.1907C117.348 84.8 117.663 84.3286 117.833 83.8158C118.003 83.303 118.023 82.7638 117.892 82.2431Z" fill="#163C69"/>
<path d="M110.477 76.3464C115.757 76.3764 118.333 78.215 119.022 76.9312C120.32 74.5321 111.637 74.5547 110.327 74.9039C110.132 74.9277 109.96 75.0121 109.843 75.1422C109.726 75.2723 109.671 75.4395 109.688 75.614C109.701 75.7896 109.789 75.9619 109.935 76.0973C110.081 76.2328 110.275 76.3216 110.477 76.3464V76.3464Z" fill="#163C69"/>
<path d="M118.796 103.003C121.415 103.314 124.074 103.314 126.694 103.003C126.933 102.939 127.142 102.814 127.29 102.645C127.438 102.476 127.517 102.272 127.517 102.063C127.517 101.854 127.438 101.65 127.29 101.481C127.142 101.312 126.933 101.186 126.694 101.123C124.041 100.739 121.314 100.955 118.796 101.75C118.113 101.991 117.967 102.819 118.796 103.003Z" fill="#163C69"/>
<path d="M98.3235 88.2018C96.9995 88.3873 95.7685 88.8891 94.7799 89.6462C93.7913 90.4032 93.0876 91.3831 92.7541 92.4669C91.7429 96.3453 95.1911 100.204 101.861 99.0484C102.973 98.8729 104.061 98.5995 105.104 98.2328C105.352 98.107 105.535 97.9094 105.619 97.6779C105.702 97.4464 105.679 97.1973 105.556 96.9788C105.434 96.7601 105.225 96.584 104.963 96.4809C104.702 96.3778 104.406 96.3544 104.126 96.4146C101.652 96.8906 98.1867 98.1646 95.9978 96.2266C95.5377 95.7741 95.2074 95.2402 95.0322 94.6654C94.8569 94.0906 94.8412 93.49 94.9863 92.9094C95.1313 92.3288 95.4334 91.7834 95.8694 91.3146C96.3055 90.8459 96.8641 90.4662 97.5027 90.2044C98.3954 89.752 99.535 89.8918 100.438 89.5146C101.397 89.1961 100.576 88.0455 98.3235 88.2018Z" fill="#163C69"/>
<path d="M147.17 110.279C141.01 110.811 142.217 111.659 131.822 110.474C136.819 106.548 131.282 96.4474 130.914 93.2189C130.914 93.0309 133.698 92.5914 133.999 92.341C135.73 91.2116 133.989 88.2052 133.397 86.9465C131.078 82.0609 128.284 77.3413 125.042 72.8349C124.729 72.4012 123.759 72.7103 123.989 73.211C124.654 74.6578 132.641 90.5757 132.118 90.7097C128.496 91.65 127.464 90.9448 126.021 91.7134C125.899 91.7716 125.796 91.853 125.719 91.951C125.643 92.049 125.595 92.1608 125.58 92.2771C125.565 92.3935 125.584 92.5111 125.634 92.6202C125.685 92.7294 125.766 92.8271 125.87 92.9051C126.403 93.1832 126.997 93.3707 127.617 93.4568C128.237 93.543 128.871 93.526 129.483 93.407C129.49 94.3806 129.642 95.3498 129.935 96.2923C125.385 95.4271 120.62 95.8463 116.387 97.484C112.626 98.9308 109.282 102.334 112.473 105.638C114.486 107.721 117.82 108.299 120.903 108.459C124.073 108.625 129.897 108.214 130.916 107.707C130.675 108.634 130.146 109.493 129.383 110.198C122.602 109.464 116.07 109.152 114.132 113.665C114.052 113.852 108.261 125.519 108.186 126.021C103.1 122.671 97.4406 121.955 91.0222 123.076C83.8527 124.464 77.5544 128.017 73.3423 133.047C72.9008 133.555 73.8683 133.987 74.321 133.486C81.7535 125.259 98.0457 120.425 107.965 128.406C112.789 132.284 114.995 137.684 115.943 143.082C117.479 151.829 117.022 163.686 116.094 172.499C115.71 176.142 115.039 179.772 114.965 183.412C114.974 183.562 115.044 183.704 115.165 183.815C115.285 183.926 115.448 183.999 115.625 184.021C115.803 184.043 115.984 184.013 116.138 183.937C116.292 183.86 116.41 183.741 116.47 183.6C120.326 173.023 120.233 153.802 118.503 143.019C116.792 132.355 109.773 127.153 109.696 127.088C110.26 126.473 110.67 125.769 110.901 125.018C112.193 122.059 114.974 116.494 115.793 114.105C119.474 109.622 129.309 112.254 137.089 112.537C144.783 112.818 147.4 111.167 148.605 111.597C152.617 112.509 141.05 115.535 136.638 116.488C136.187 116.614 136.26 117.293 136.789 117.242C140.817 116.859 144.737 115.905 148.379 114.421C152.65 113.146 150.82 109.964 147.17 110.279ZM121.28 105.951C119.624 105.953 117.985 105.676 116.462 105.136C115.334 104.685 114.054 103.819 114.054 102.689C114.054 100.691 118.308 99.0342 120.603 98.4877C123.795 97.9035 127.045 97.5675 130.311 97.484C131.232 100.748 131.214 101.04 131.214 105.512C129.207 104.955 128.627 106.225 121.28 105.951Z" fill="#163C69"/>
<path d="M167.469 55.3209C166.38 57.1633 163.746 56.8445 161.959 56.7005C159.601 56.505 156.963 56.722 155.31 58.5905C153.843 60.2543 152.209 64.6374 155.351 65.49C156.684 65.8414 158.047 65.0545 158.414 63.7218C158.615 62.8161 158.822 61.8153 159.84 61.6028C161.763 61.1949 163.837 61.8264 165.767 61.5721C167.867 61.388 169.81 60.397 171.187 58.8016C173.825 55.5206 173.03 50.6024 170.507 47.4494C168.506 45.0339 165.441 43.7719 162.336 44.0896C158.707 44.7917 156.257 48.1927 156.723 51.8752C156.898 52.3839 157.448 52.6538 157.954 52.4813C158.148 52.4132 158.318 52.2874 158.436 52.1162C159.371 50.8689 160.379 49.2905 161.927 48.7292C165.345 47.4741 169.332 52.1603 167.469 55.3209Z" fill="#F4B94B"/>
<path d="M153.473 74.7385C154.97 74.7431 156.316 73.8549 156.909 72.4735C158.447 68.798 153.718 65.9843 151.136 68.7845C149.842 70.2205 149.961 72.4678 151.406 73.8014C151.978 74.3347 152.707 74.6614 153.473 74.7385Z" fill="#F4B94B"/>
<path d="M232.597 114.983C227.943 108.092 218.055 106.145 209.49 108.774C201.733 111.156 198.419 115.437 199.782 122.573C199.997 123.703 200.533 125.019 200.759 126.148C195.005 129.916 193.082 128.916 193.082 129.597C192.941 129.737 192.84 129.902 192.79 130.079C192.739 130.257 192.739 130.442 192.791 130.619C192.842 130.796 192.943 130.961 193.086 131.1C193.228 131.238 193.408 131.347 193.61 131.417C195.854 132.127 198.214 132.549 200.609 132.671C202.415 132.751 204.072 132.419 205.651 133.235C206.846 134.188 208.219 134.972 209.716 135.556C214.811 137.679 221.14 138.384 226.575 136.12C235.044 132.596 237.347 122.018 232.597 114.983ZM222.059 127.026C222.801 127.779 223.271 128.693 223.415 129.66C223.44 129.999 223.383 130.338 223.248 130.659C223.114 130.98 222.903 131.274 222.63 131.526C222.357 131.778 222.026 131.982 221.656 132.126C221.287 132.269 220.887 132.35 220.48 132.363C217.841 132.363 216.954 130.482 213.479 124.959C211.497 125.783 209.462 126.516 207.383 127.154C206.952 127.247 206.495 127.207 206.096 127.043C205.697 126.878 205.382 126.599 205.209 126.258C205.035 125.916 205.015 125.533 205.152 125.18C205.288 124.827 205.573 124.526 205.953 124.333C207.691 123.25 209.53 122.286 211.454 121.448C211.215 120.853 208.378 116.299 208.517 114.675C208.519 114.448 208.592 114.225 208.729 114.029C208.866 113.832 209.062 113.669 209.297 113.555C209.533 113.441 209.8 113.38 210.073 113.378C210.345 113.377 210.614 113.434 210.851 113.546C212.762 115.361 214.547 117.266 216.195 119.253C223.867 115.888 223.767 115.467 225.151 115.492C225.572 115.495 225.986 115.59 226.351 115.766C226.716 115.942 227.019 116.194 227.233 116.498C227.446 116.801 227.561 117.145 227.567 117.497C227.573 117.848 227.469 118.195 227.266 118.503C226.691 119.191 225.876 119.717 224.932 120.008C224.186 120.333 220.116 122.14 218.76 122.642C219.952 124.203 221.018 125.639 222.059 127.026V127.026Z" fill="#FF6C7E"/>
<path d="M231.167 99.6794C231.407 99.6794 231.636 99.6 231.806 99.4589C231.975 99.3177 232.07 99.1262 232.07 98.9266C232.07 98.7269 231.975 98.5355 231.806 98.3943C231.636 98.2531 231.407 98.1738 231.167 98.1738C230.928 98.1738 230.698 98.2531 230.528 98.3943C230.359 98.5355 230.264 98.7269 230.264 98.9266C230.264 99.1262 230.359 99.3177 230.528 99.4589C230.698 99.6 230.928 99.6794 231.167 99.6794Z" fill="#163C69"/>
<path d="M179.54 136.936C181.426 137.876 192.867 143.452 196.776 145.28C203.343 148.347 226.156 158.757 233.28 160.835C233.383 160.891 233.498 160.929 233.619 160.947C233.74 160.965 233.865 160.962 233.984 160.938C234.104 160.915 234.216 160.871 234.315 160.81C234.414 160.749 234.497 160.672 234.559 160.584C241.676 148.026 249.825 135.892 258.945 124.268C260.701 122.298 261.979 120.063 262.708 117.686C262.985 116.655 262.952 115.582 262.61 114.565C262.269 113.547 261.63 112.615 260.752 111.853C258.71 110.151 257.199 109.76 234.71 102.507C231.765 101.559 203.949 92.1038 197.304 93.2227C194.597 93.6799 193.298 96.0434 192.035 97.8639C186.85 105.353 179.837 122.123 174.264 133.678C174.006 134.325 179.117 136.727 179.54 136.936ZM186.691 110.969C188.878 106.12 191.572 101.44 194.744 96.9836C196.955 94.0854 198.048 94.4485 202.346 95.1643C215.208 97.3091 255.222 110.81 256.01 111.096C262.553 113.477 262.103 117.002 258.419 122.072C253.765 128.475 254.106 127.027 242.914 143.9C239.59 148.911 236.285 153.872 233.28 159.015C225.311 155.178 231.437 159.022 181.271 136.122C179.44 135.17 177.529 134.331 175.551 133.612C178.077 129.394 177.425 129.756 186.685 110.971L186.691 110.969Z" fill="#163C69"/>
<path d="M272.412 108.267C265.361 104.43 208.977 88.0056 200.759 86.3155C199.121 85.8857 197.376 85.8216 195.699 86.1298C194.021 86.4379 192.471 87.1074 191.201 88.0714C189.025 90.034 187.337 92.3364 186.234 94.8457C179.975 106.618 174.367 118.552 169.373 131.035C168.771 131.161 165.536 131.851 165.234 131.975C164.783 132.163 165.159 133.416 165.611 133.355C167.039 133.162 170.349 133.291 171.029 131.661C175.377 121.245 179.914 110.878 185.104 100.74C188.437 94.2228 190.31 89.5922 194.362 88.0079C197.989 86.5894 202.34 88.3205 205.802 89.2619C209.716 90.3267 213.634 91.3845 217.543 92.461C240.23 98.7018 265.431 106.987 269.101 108.454C273.567 110.894 268.396 119.72 265.788 123.633C258.519 134.515 237.113 161.818 237.113 162.143C236.373 162.143 183.529 179.49 176.374 178.832C171.502 178.155 159.67 170.355 155.751 167.856C148.888 163.48 142.017 159.064 135.355 154.497C134.819 154.129 133.999 154.747 134.602 155.123C145.133 162.678 154.514 169.566 163.127 174.693C162.976 176.01 163.353 180.15 163.427 180.965C150.286 172.903 137.219 163.074 136.183 162.964C135.146 162.853 134.225 163.967 135.128 164.595C135.279 164.72 135.204 164.595 135.128 164.531C137.947 166.778 140.914 168.892 144.013 170.866C149.877 174.887 155.768 178.817 161.851 182.596C168.823 186.928 173.078 189.91 181.494 187.864C203.031 182.628 217.627 178.836 239.072 171.058C239.394 170.973 239.666 170.79 239.833 170.546C240.001 170.302 240.052 170.014 239.976 169.74C239.463 167.668 238.921 165.538 238.32 163.468C240.544 164.581 243.115 165.247 244.949 163.719C245.811 163 260.512 142.932 261.883 141.014C266.324 134.804 270.456 128.522 274.754 122.26C278.695 116.503 280.188 112.504 272.412 108.267ZM165.46 176.069C166.039 178.967 166.719 182.808 166.815 182.968C166.288 182.654 165.687 182.278 165.159 181.964C165.083 180.836 164.331 175.693 164.255 175.383C164.632 175.634 165.083 175.822 165.46 176.074V176.069ZM168.622 184.034C168.622 183.909 166.89 176.947 166.89 176.821C167.568 177.199 170.352 178.702 171.105 179.017C171.105 179.519 172.234 185.54 172.31 185.728C170.996 185.304 169.755 184.736 168.622 184.039V184.034ZM174.568 186.293C174.568 186.167 173.061 180.71 172.836 179.77C173.929 180.276 175.132 180.595 176.374 180.71C176.374 181.714 176.9 186.167 176.975 186.418C176.17 186.446 175.363 186.406 174.568 186.298V186.293Z" fill="#163C69"/>
<path d="M174.642 150.859C174.281 150.143 173.772 149.485 173.138 148.915C168.074 143.391 166.368 136.326 164.111 133.8C161.797 131.214 157.871 131.252 154.401 131.855C147.337 133.111 140.438 134.941 133.802 137.318C134.394 130.148 135.212 123.824 135.058 117.492C135.133 117.242 134.389 117.117 134.305 117.492C132.48 125.736 131.791 135.414 130.392 150.165C128.122 174.111 127.994 192.484 117.07 204.921C109.995 212.976 98.5435 216.717 90.5018 215.709C79.2374 214.298 73.6991 202.623 70.475 193.505C70.3776 193.238 70.1591 193.013 69.8658 192.878C69.5726 192.743 69.2276 192.709 68.9043 192.782C68.581 192.855 68.3048 193.031 68.1344 193.271C67.9639 193.512 67.9126 193.798 67.9914 194.069C70.7782 202.197 75.8272 212.964 85.0762 216.524C95.0134 220.348 107.218 216.153 114.657 210.314C126.319 201.168 129.238 186.599 130.612 173.309C131.169 167.927 133.081 145.925 133.743 137.963C136.679 137.159 146.221 134.827 152.665 133.607C155.977 132.98 160.34 132.165 162.678 134.861C164.381 136.826 165.84 142.42 169.602 147.719C170.496 148.978 171.717 150.98 173.441 151.608C173.579 151.675 173.738 151.708 173.898 151.7C174.058 151.693 174.212 151.646 174.34 151.566C174.468 151.486 174.565 151.376 174.619 151.251C174.673 151.125 174.681 150.989 174.642 150.859V150.859Z" fill="#163C69"/>
<path d="M161.923 142.769C161.997 142.643 162.073 142.581 162.148 142.455C162.98 140.721 160.938 138.882 157.558 140.009C154.818 141.118 151.904 141.899 148.902 142.329C148.003 142.368 147.115 142.516 146.268 142.769C145.812 142.95 145.969 143.515 146.417 143.647C148.048 143.904 149.729 143.818 151.31 143.396C152.94 143.064 154.527 142.602 156.051 142.017C157.106 141.639 159.935 139.959 160.794 141.451C161.449 142.59 157.632 144.086 156.804 144.588C152.415 146.965 150.211 148.476 147.472 148.476C144.087 148.476 141.301 146.282 138.666 144.776C138.29 144.525 137.913 145.026 138.213 145.278C140.1 147.316 142.706 148.808 145.666 149.543C148.978 150.167 151.768 148.86 154.396 147.41C156.825 146.192 159.163 144.852 161.396 143.396C162.057 144.799 162.971 146.11 164.106 147.284C163.543 147.964 162.795 148.523 161.923 148.915C160.714 149.423 159.352 149.619 158.009 149.48C157.481 149.424 157.407 150.107 157.858 150.233C159.025 150.535 160.27 150.559 161.453 150.304C162.637 150.049 163.711 149.525 164.557 148.79C164.793 148.631 164.995 148.441 165.155 148.227C166.252 149.258 167.461 150.202 168.767 151.047C169.169 151.383 169.705 151.584 170.273 151.613C170.375 151.604 170.472 151.575 170.558 151.529C170.643 151.483 170.715 151.421 170.766 151.347C170.817 151.274 170.847 151.192 170.853 151.107C170.858 151.022 170.84 150.937 170.799 150.859C169.847 149.744 167.217 149.387 161.923 142.769Z" fill="#163C69"/>
<path d="M64.3034 171.057C63.8521 170.867 58.38 167.706 57.0783 166.979C56.9906 166.94 56.9135 166.886 56.8514 166.821C56.7893 166.756 56.7435 166.681 56.7168 166.601C56.6901 166.521 56.6831 166.437 56.696 166.355C56.709 166.272 56.7417 166.193 56.7923 166.121C56.8429 166.05 56.9102 165.987 56.9903 165.938C57.0705 165.888 57.1617 165.853 57.2587 165.833C57.3556 165.814 57.4563 165.811 57.5547 165.824C57.6531 165.838 57.7472 165.868 57.8314 165.912C59.4575 166.556 64.1173 168.956 64.3034 169.111C64.3034 166.854 64.3725 164.595 64.5291 162.401C64.5243 162.299 64.5441 162.198 64.5873 162.103C64.6305 162.008 64.6963 161.922 64.7807 161.849C64.865 161.776 64.9662 161.717 65.0782 161.678C65.1902 161.638 65.3107 161.617 65.4324 161.617C65.5541 161.617 65.6746 161.638 65.7866 161.678C65.8986 161.717 65.9998 161.776 66.0842 161.849C66.1685 161.922 66.2343 162.008 66.2775 162.103C66.3207 162.198 66.3405 162.299 66.3357 162.401C66.5614 172.065 66.9379 181.781 69.7205 191.195C83.5869 187.588 110.647 175.468 116.039 172.915C117.015 164.092 117.474 151.877 115.933 143.088C114.985 137.69 112.779 132.293 107.955 128.412C98.0358 120.431 81.7436 125.264 74.3112 133.492C73.8585 133.993 72.891 133.56 73.3324 133.053C81.8367 123.274 95.218 120.771 103.743 123.804C98.6479 115.424 84.2159 107.418 76.2701 106.766C76.145 106.756 76.0187 106.768 75.8995 106.802C75.7803 106.835 75.671 106.889 75.5787 106.96C75.4864 107.032 75.4132 107.118 75.3639 107.215C75.3146 107.311 75.2904 107.415 75.2928 107.52C75.2928 108.064 73.4988 111.29 71.9813 116.922C76.1354 117.499 80.1665 118.576 83.948 120.121C85.1026 120.471 86.1181 121.081 86.8815 121.883C86.9565 121.987 86.9919 122.107 86.983 122.228C86.974 122.349 86.9211 122.465 86.8312 122.56C86.7414 122.655 86.6189 122.725 86.48 122.761C86.3411 122.797 86.1924 122.797 86.0536 122.761C85.2596 122.607 76.8864 118.864 70.0971 118.12C57.6029 118.998 46.0199 124.961 35.5509 135.932C26.1497 145.783 18.8413 162.401 16.7343 173.063L10.038 206.991C9.24539 209.631 33.1745 221.094 76.5903 210.291C67.8786 200.201 64.4247 183.443 64.3034 171.057Z" fill="#38A1FF"/>
<path d="M173.438 145.524C172.627 145.708 171.746 145.951 170.932 146.138C171.596 147.101 172.332 148.027 173.138 148.911C173.776 149.609 175.19 150.883 174.479 151.475C174.511 151.535 174.529 151.6 174.531 151.666C174.533 151.732 174.52 151.797 174.491 151.858C174.29 152.196 172.171 152.595 170.06 151.596C168.833 151.468 165.984 148.977 165.159 148.221C164.013 149.387 162.409 150.178 160.631 150.454C161.86 151.116 168.362 154.645 170.654 155.878C172.31 155.438 181.116 153.057 183.825 152.303C183.008 151.793 179.316 149.684 173.438 145.524Z" fill="#38A1FF"/>
<path d="M145.666 149.543C143.533 149.074 141.588 148.144 140.024 146.847C139.783 146.848 139.548 146.908 139.348 147.02C139.147 147.131 138.99 147.289 138.896 147.474C138.745 147.724 138.369 148.476 140.928 150.547C140.928 150.547 141.605 150.985 142.81 151.739C146.723 150.672 150.708 149.668 154.702 148.728C154.293 148.473 153.885 148.188 153.5 147.894C151.129 149.131 148.603 150.097 145.666 149.543Z" fill="#38A1FF"/>
<path d="M170.146 144.958C170.818 144.774 171.487 144.648 172.084 144.462C170.723 143.477 169.409 142.452 168.144 141.389C168.732 142.551 169.386 143.761 170.146 144.958Z" fill="#38A1FF"/>
</svg>
